<svg width="26" height="27" viewBox="0 0 26 27" fill="none" xmlns="http://www.w3.org/2000/svg">
<g clip-path="url(#clip0_44_1669)">
<path d="M25.9958 13.729C25.9958 20.9071 20.176 26.7269 12.9948 26.728C5.8188 26.728 -0.00103944 20.9071 5.57367e-07 13.728C-0.00207944 6.54884 5.81776 0.729004 12.9969 0.729004C20.176 0.729004 25.9958 6.54988 25.9958 13.729Z" fill="#DC4654"/>
<path d="M18.1118 10.5444C17.9444 8.80346 16.4416 8.22002 14.5425 8.05362V5.6377H13.073V7.98914C12.6872 7.98914 12.292 7.99642 11.8999 8.00473V5.6377H10.4304L10.4293 8.05154C10.1111 8.05778 9.79805 8.06402 9.49333 8.06402V8.05674L7.46637 8.0557V9.6261C7.46637 9.6261 8.55213 9.6053 8.53341 9.62506C9.12933 9.62506 9.32277 9.97034 9.37893 10.2688V13.0207C9.42053 13.0207 9.47357 13.0227 9.53389 13.0311H9.37893L9.37789 16.8863C9.35189 17.0735 9.24165 17.372 8.82565 17.3731C8.84437 17.3897 7.75757 17.3731 7.75757 17.3731L7.46533 19.1286H9.37893C9.73461 19.1286 10.0851 19.1348 10.4283 19.1369L10.4293 21.5799H11.8978V19.1629C12.3003 19.1712 12.6903 19.1743 13.072 19.1743L13.0709 21.5799H14.5405V19.1421C17.0115 19.0007 18.7431 18.3777 18.9573 16.0564C19.131 14.1875 18.2522 13.3524 16.8493 13.0155C17.7031 12.5828 18.2366 11.8184 18.1118 10.5444ZM16.0547 15.7673C16.0547 17.5925 12.9295 17.3855 11.9321 17.3855V14.148C12.9295 14.1501 16.0547 13.8641 16.0547 15.7673ZM15.3704 11.2007C15.3704 12.8615 12.7621 12.6671 11.9321 12.6681V9.73322C12.7631 9.73322 15.3714 9.46906 15.3704 11.2007Z" fill="white"/>
<path d="M9.38086 12.9561H9.59926V13.1173H9.38086V12.9561Z" fill="white"/>
</g>
<defs>
<clipPath id="clip0_44_1669">
<rect width="25.9958" height="26" fill="white" transform="translate(0 0.729004)"/>
</clipPath>
</defs>
</svg>
