<svg width="3194" height="749" viewBox="0 0 3194 749" fill="none" xmlns="http://www.w3.org/2000/svg">
<path d="M322.859 404.663C322.859 394.598 321.249 384.888 318.018 375.647C314.808 366.365 310.455 358.281 304.999 351.387C299.553 344.493 293.112 339.059 285.655 335.085C278.218 331.112 270.04 329.13 261.11 329.13H103.432V477.797H255.908C265.316 477.797 274.129 475.92 282.337 472.238C290.506 468.504 297.552 463.331 303.525 456.697C309.479 450.095 314.173 442.273 317.657 433.251C321.103 424.261 322.859 414.717 322.859 404.663ZM103.432 100.195V242.479H240.292C257.635 242.479 272.402 236.148 284.543 223.403C296.703 210.689 302.764 193.187 302.764 170.941C302.764 149.236 297.191 131.995 286.055 119.282C274.88 106.568 261.11 100.195 244.772 100.195H103.432ZM426.254 425.324C426.254 449.167 421.803 470.089 412.873 488.112C403.943 506.135 391.656 521.237 376.04 533.43C360.424 545.622 342.32 554.863 321.737 561.246C301.154 567.608 279.214 570.79 255.908 570.79H0.788574V6.39928H283.45C301.759 6.39928 318.409 10.6338 333.273 19.1133C348.166 27.6136 360.786 38.5753 371.199 52.1029C381.632 65.6199 389.684 80.9831 395.374 98.2236C401.064 115.433 403.943 132.799 403.943 150.269C403.943 177.824 397.492 203.669 384.599 227.773C371.707 251.897 352.851 269.784 328.061 281.424C358.297 290.967 382.237 308.083 399.854 332.697C417.441 357.343 426.254 388.236 426.254 425.324Z" fill="#FD0E35"/>
<path d="M569.095 578.758C528.934 578.758 498.454 564.98 477.598 537.414C456.78 509.869 446.367 469.036 446.367 414.999V154.264H546.033V391.939C546.033 456.072 567.612 488.133 610.779 488.133C630.113 488.133 648.823 481.917 666.917 469.464C685.022 457.011 699.759 438.06 711.168 412.6V154.264H810.844V448.375C810.844 459.493 812.708 467.461 816.437 472.249C820.165 476.994 826.216 479.654 834.658 480.175V570.8C824.732 572.897 816.437 574.221 809.751 574.774C803.027 575.296 796.976 575.556 791.53 575.556C773.669 575.556 759.147 571.186 748.001 562.456C736.836 553.727 730.268 541.649 728.296 526.296L726.061 492.921C708.689 521.509 686.378 542.984 659.11 557.273C631.841 571.603 601.839 578.758 569.095 578.758Z" fill="#FD0E35"/>
<path d="M1060.56 488.117C1071.45 488.117 1081.87 486.271 1091.79 482.558C1101.72 478.866 1110.89 473.818 1119.34 467.456C1127.75 461.104 1135.2 453.668 1141.65 445.199C1148.09 436.719 1153.06 427.697 1156.51 418.154V318.789C1147.61 294.435 1133.57 274.837 1114.49 259.985C1095.4 245.144 1075.45 237.738 1054.63 237.738C1039.22 237.738 1025.36 241.285 1012.95 248.439C1000.57 255.615 989.883 265.169 980.992 277.069C972.061 289.001 965.22 302.654 960.525 318.017C955.812 333.38 953.45 349.286 953.45 365.692C953.45 382.672 956.173 398.556 961.648 413.398C967.094 428.25 974.667 441.214 984.32 452.343C994.001 463.472 1005.26 472.243 1018.16 478.574C1031.05 484.947 1045.18 488.117 1060.56 488.117ZM1027.09 573.183C1000.81 573.183 976.99 567.614 955.685 556.495C934.35 545.367 915.884 530.129 900.269 510.792C884.653 491.444 872.6 469.031 864.187 443.603C855.745 418.154 851.539 391.141 851.539 362.521C851.539 332.316 856.018 304.239 864.948 278.258C873.879 252.288 886.254 229.52 902.113 209.88C918.002 190.314 937.102 174.919 959.413 163.791C981.714 152.662 1006.26 147.103 1033.05 147.103C1063.29 147.103 1089.83 154.383 1112.62 168.964C1135.44 183.555 1154.3 203.028 1169.16 227.382V154.248H1256.21V550.926C1256.21 581.663 1250.72 609.208 1239.83 633.603C1228.91 657.957 1213.92 678.629 1194.83 695.577C1175.73 712.557 1152.9 725.532 1126.39 734.554C1099.85 743.544 1070.97 748.04 1039.74 748.04C997.095 748.04 961.257 740.499 932.261 725.396C903.236 710.294 878.329 688.944 857.502 661.42L911.795 604.973C926.659 624.581 945.398 639.945 967.943 651.073C990.527 662.191 1014.43 667.761 1039.74 667.761C1055.11 667.761 1069.85 665.498 1083.99 660.992C1098.12 656.507 1110.65 649.488 1121.55 639.945C1132.47 630.401 1141.01 618.209 1147.21 603.398C1153.42 588.546 1156.51 571.045 1156.51 550.926V498.464C1143.61 522.296 1125.51 540.705 1102.21 553.711C1078.9 566.675 1053.87 573.183 1027.09 573.183Z" fill="#FD0E35"/>
<path d="M2328.4 0.0400759V47.6836H2410.57V99.0715H2456.9V137.37H2499.74V182.208H2540.83V274.7H2585.41V0.0400759H2328.4Z" fill="#FD0E35"/>
<path d="M2418.58 155.582L2408.63 144.849C2320.82 213.832 2265.46 336.341 2265.46 472.451C2265.46 579.534 2301.42 676.469 2359.51 746.547L2391.01 711.899C2334.1 644.418 2298.67 549.966 2298.67 445.354C2298.67 326.308 2347.36 223.491 2418.58 155.582" fill="#232323"/>
<path d="M2328.4 417.324C2328.4 317.906 2367.76 228.773 2430.06 167.956L2421.16 158.361C2349.46 224.538 2305.67 330.704 2305.67 447.205C2305.67 548.437 2340.56 639.917 2396.73 705.594L2431.11 667.765C2368.21 606.907 2328.4 517.315 2328.4 417.324Z" fill="#232323"/>
<path d="M2365.4 389.16C2365.4 307.859 2395.29 236.279 2440.48 179.249L2432.62 170.759C2373.85 230.699 2339.11 318.518 2339.11 413.597C2339.11 511.116 2377.83 598.664 2439.27 658.782L2464.34 631.205C2403.6 571.609 2365.4 485.26 2365.4 389.16Z" fill="#232323"/>
<path d="M2376.48 389.156C2376.48 482.012 2412.41 565.733 2469.94 625.047L2502.44 589.283C2440.67 532.994 2401.72 451.036 2401.72 359.722C2401.72 297.3 2420.03 239.331 2451.27 190.863L2444.3 183.343C2401.97 239.435 2376.48 311.026 2376.48 389.156Z" fill="#232323"/>
<path d="M1316.99 568.04V153.494H1367.19V523.508H1559.89V568.04H1316.99ZM1746.94 574.517C1718.87 574.517 1694.25 567.837 1673.06 554.478C1652.01 541.118 1635.55 522.429 1623.67 498.409C1611.93 474.389 1606.06 446.321 1606.06 414.204C1606.06 381.818 1611.93 353.547 1623.67 329.393C1635.55 305.238 1652.01 286.481 1673.06 273.121C1694.25 259.762 1718.87 253.082 1746.94 253.082C1775.01 253.082 1799.57 259.762 1820.62 273.121C1841.81 286.481 1858.27 305.238 1870.01 329.393C1881.89 353.547 1887.82 381.818 1887.82 414.204C1887.82 446.321 1881.89 474.389 1870.01 498.409C1858.27 522.429 1841.81 541.118 1820.62 554.478C1799.57 567.837 1775.01 574.517 1746.94 574.517ZM1746.94 531.605C1768.26 531.605 1785.81 526.14 1799.57 515.209C1813.33 504.279 1823.52 489.907 1830.13 472.095C1836.75 454.282 1840.05 434.986 1840.05 414.204C1840.05 393.423 1836.75 374.059 1830.13 356.111C1823.52 338.164 1813.33 323.657 1799.57 312.592C1785.81 301.527 1768.26 295.994 1746.94 295.994C1725.62 295.994 1708.08 301.527 1694.31 312.592C1680.55 323.657 1670.36 338.164 1663.75 356.111C1657.14 374.059 1653.83 393.423 1653.83 414.204C1653.83 434.986 1657.14 454.282 1663.75 472.095C1670.36 489.907 1680.55 504.279 1694.31 515.209C1708.08 526.14 1725.62 531.605 1746.94 531.605ZM2075.74 691.108C2052.66 691.108 2032.83 688.139 2016.23 682.201C1999.63 676.399 1985.8 668.707 1974.73 659.126C1963.8 649.68 1955.1 639.559 1948.62 628.764L1986.68 602.045C1991 607.713 1996.46 614.19 2003.07 621.477C2009.69 628.899 2018.73 635.309 2030.2 640.706C2041.8 646.239 2056.98 649.005 2075.74 649.005C2100.84 649.005 2121.55 642.933 2137.88 630.788C2154.21 618.643 2162.37 599.616 2162.37 573.707V510.554H2158.32C2154.82 516.221 2149.82 523.238 2143.35 531.605C2137 539.836 2127.83 547.191 2115.82 553.668C2103.94 560.01 2087.88 563.182 2067.64 563.182C2042.54 563.182 2020.01 557.244 2000.04 545.369C1980.2 533.494 1964.48 516.221 1952.87 493.551C1941.4 470.88 1935.67 443.352 1935.67 410.966C1935.67 379.119 1941.27 351.388 1952.47 327.773C1963.67 304.023 1979.26 285.671 1999.23 272.716C2019.2 259.627 2042.27 253.082 2068.45 253.082C2088.69 253.082 2104.75 256.456 2116.63 263.203C2128.64 269.815 2137.81 277.372 2144.16 285.873C2150.63 294.24 2155.63 301.122 2159.13 306.52H2163.99V257.13H2210.14V576.946C2210.14 603.665 2204.07 625.39 2191.93 642.123C2179.92 658.991 2163.72 671.339 2143.35 679.165C2123.1 687.127 2100.57 691.108 2075.74 691.108ZM2074.12 520.27C2093.28 520.27 2109.48 515.884 2122.7 507.113C2135.92 498.341 2145.98 485.724 2152.86 469.261C2159.74 452.798 2163.18 433.096 2163.18 410.156C2163.18 387.755 2159.81 367.986 2153.06 350.848C2146.32 333.711 2136.33 320.284 2123.1 310.568C2109.88 300.852 2093.55 295.994 2074.12 295.994C2053.88 295.994 2037.01 301.122 2023.52 311.378C2010.16 321.633 2000.1 335.398 1993.36 352.67C1986.74 369.943 1983.44 389.105 1983.44 410.156C1983.44 431.747 1986.81 450.841 1993.56 467.439C2000.44 483.902 2010.56 496.857 2023.92 506.303C2037.42 515.614 2054.15 520.27 2074.12 520.27Z" fill="black"/>
<path d="M2950.79 567.585V153.04H3000.99V523.054H3193.69V567.585H2950.79Z" fill="black"/>
<path d="M1428.29 671.767C1424.4 671.767 1421.06 671.267 1418.27 670.267C1415.47 669.29 1413.14 667.994 1411.28 666.38C1409.44 664.79 1407.97 663.085 1406.88 661.267L1413.29 656.767C1414.02 657.721 1414.94 658.812 1416.05 660.04C1417.16 661.29 1418.69 662.369 1420.62 663.278C1422.57 664.21 1425.13 664.676 1428.29 664.676C1432.52 664.676 1436 663.653 1438.75 661.608C1441.5 659.562 1442.88 656.358 1442.88 651.994V641.358H1442.2C1441.61 642.312 1440.77 643.494 1439.67 644.903C1438.61 646.29 1437.06 647.528 1435.04 648.619C1433.04 649.687 1430.33 650.221 1426.92 650.221C1422.7 650.221 1418.9 649.221 1415.54 647.221C1412.2 645.221 1409.55 642.312 1407.6 638.494C1405.66 634.676 1404.7 630.04 1404.7 624.585C1404.7 619.221 1405.64 614.551 1407.53 610.574C1409.41 606.574 1412.04 603.483 1415.4 601.301C1418.77 599.096 1422.65 597.994 1427.06 597.994C1430.47 597.994 1433.17 598.562 1435.17 599.699C1437.2 600.812 1438.74 602.085 1439.81 603.517C1440.9 604.926 1441.74 606.085 1442.33 606.994H1443.15V598.676H1450.92V652.54C1450.92 657.04 1449.9 660.699 1447.86 663.517C1445.83 666.358 1443.11 668.437 1439.67 669.755C1436.27 671.096 1432.47 671.767 1428.29 671.767ZM1428.02 642.994C1431.24 642.994 1433.97 642.255 1436.2 640.778C1438.42 639.301 1440.12 637.176 1441.28 634.403C1442.44 631.63 1443.02 628.312 1443.02 624.449C1443.02 620.676 1442.45 617.346 1441.31 614.46C1440.17 611.574 1438.49 609.312 1436.27 607.676C1434.04 606.04 1431.29 605.221 1428.02 605.221C1424.61 605.221 1421.77 606.085 1419.49 607.812C1417.24 609.54 1415.55 611.858 1414.41 614.767C1413.3 617.676 1412.74 620.903 1412.74 624.449C1412.74 628.085 1413.31 631.301 1414.45 634.096C1415.61 636.869 1417.31 639.051 1419.56 640.642C1421.83 642.21 1424.65 642.994 1428.02 642.994ZM1455.15 651.04V598.676H1463.2V651.04H1455.15ZM1459.24 589.949C1457.67 589.949 1456.32 589.415 1455.19 588.346C1454.07 587.278 1453.52 585.994 1453.52 584.494C1453.52 582.994 1454.07 581.71 1455.19 580.642C1456.32 579.574 1457.67 579.04 1459.24 579.04C1460.81 579.04 1462.15 579.574 1463.27 580.642C1464.4 581.71 1464.97 582.994 1464.97 584.494C1464.97 585.994 1464.4 587.278 1463.27 588.346C1462.15 589.415 1460.81 589.949 1459.24 589.949ZM1475.48 619.54V651.04H1467.43V598.676H1475.21V606.858H1475.89C1477.12 604.199 1478.98 602.062 1481.48 600.449C1483.98 598.812 1487.21 597.994 1491.16 597.994C1494.71 597.994 1497.81 598.721 1500.47 600.176C1503.13 601.608 1505.19 603.79 1506.67 606.721C1508.15 609.63 1508.89 613.312 1508.89 617.767V651.04H1500.84V618.312C1500.84 614.199 1499.77 610.994 1497.64 608.699C1495.5 606.38 1492.57 605.221 1488.84 605.221C1486.27 605.221 1483.98 605.778 1481.96 606.892C1479.96 608.005 1478.38 609.63 1477.22 611.767C1476.06 613.903 1475.48 616.494 1475.48 619.54ZM1534.23 671.767C1530.34 671.767 1527 671.267 1524.2 670.267C1521.41 669.29 1519.08 667.994 1517.21 666.38C1515.37 664.79 1513.91 663.085 1512.82 661.267L1519.23 656.767C1519.95 657.721 1520.87 658.812 1521.99 660.04C1523.1 661.29 1524.62 662.369 1526.56 663.278C1528.51 664.21 1531.07 664.676 1534.23 664.676C1538.45 664.676 1541.94 663.653 1544.69 661.608C1547.44 659.562 1548.82 656.358 1548.82 651.994V641.358H1548.14C1547.54 642.312 1546.7 643.494 1545.61 644.903C1544.54 646.29 1543 647.528 1540.98 648.619C1538.98 649.687 1536.27 650.221 1532.86 650.221C1528.64 650.221 1524.84 649.221 1521.48 647.221C1518.14 645.221 1515.49 642.312 1513.53 638.494C1511.6 634.676 1510.64 630.04 1510.64 624.585C1510.64 619.221 1511.58 614.551 1513.46 610.574C1515.35 606.574 1517.98 603.483 1521.34 601.301C1524.7 599.096 1528.59 597.994 1533 597.994C1536.41 597.994 1539.11 598.562 1541.11 599.699C1543.14 600.812 1544.68 602.085 1545.75 603.517C1546.84 604.926 1547.68 606.085 1548.27 606.994H1549.09V598.676H1556.86V652.54C1556.86 657.04 1555.84 660.699 1553.79 663.517C1551.77 666.358 1549.04 668.437 1545.61 669.755C1542.2 671.096 1538.41 671.767 1534.23 671.767ZM1533.95 642.994C1537.18 642.994 1539.91 642.255 1542.14 640.778C1544.36 639.301 1546.06 637.176 1547.21 634.403C1548.37 631.63 1548.95 628.312 1548.95 624.449C1548.95 620.676 1548.39 617.346 1547.25 614.46C1546.11 611.574 1544.43 609.312 1542.2 607.676C1539.98 606.04 1537.23 605.221 1533.95 605.221C1530.54 605.221 1527.7 606.085 1525.43 607.812C1523.18 609.54 1521.49 611.858 1520.35 614.767C1519.24 617.676 1518.68 620.903 1518.68 624.449C1518.68 628.085 1519.25 631.301 1520.39 634.096C1521.54 636.869 1523.25 639.051 1525.5 640.642C1527.77 642.21 1530.59 642.994 1533.95 642.994Z" fill="black"/>
<path d="M2573.79 568.043C2513.59 568.043 2464.79 519.241 2464.79 459.042C2464.79 398.843 2513.59 350.041 2573.79 350.041C2633.99 350.041 2682.79 398.843 2682.79 459.042C2682.79 519.241 2633.99 568.043 2573.79 568.043ZM2573.79 366.817C2522.85 366.817 2481.56 408.108 2481.56 459.041C2481.56 509.976 2522.85 551.267 2573.79 551.267C2624.72 551.267 2666.01 509.976 2666.01 459.041C2666.01 408.108 2624.72 366.817 2573.79 366.817Z" fill="black"/>
<path d="M2609.19 536.282C2605.7 536.28 2593 513.672 2591.29 507.227C2587.72 493.731 2588.49 488.03 2588.7 486.207C2589.36 480.642 2594.76 477.861 2595.08 470.334C2595.18 468.01 2596.36 456.39 2597.3 447.314C2594.98 446.861 2592.68 445.819 2590.63 444.201C2596.78 452.445 2587.73 462.326 2574.59 475.472C2560.64 489.424 2529.67 502.374 2529.67 502.374C2529.67 502.374 2542.62 471.405 2556.57 457.453C2566.82 447.198 2575.09 439.437 2582.15 439.437C2584.13 439.437 2586.03 440.054 2587.84 441.405C2586.22 439.358 2585.18 437.056 2584.73 434.744C2575.65 435.684 2564.03 436.855 2561.71 436.957C2554.18 437.284 2551.4 442.684 2545.83 443.336C2545.19 443.412 2544.08 443.557 2542.31 443.557C2539.04 443.557 2533.57 443.065 2524.81 440.748C2517.8 438.894 2491.68 424.034 2496.3 422.166C2498.66 421.212 2506.17 420.568 2516.06 420.568C2525.57 420.568 2537.28 421.164 2548.72 422.654C2562.98 424.513 2576.06 426.863 2584.98 428.612C2585.12 428.133 2585.29 427.667 2585.5 427.215L2576.39 422.848C2576.39 422.848 2569.11 414.495 2569.89 413.92C2569.92 413.897 2569.96 413.886 2570 413.886C2571.14 413.886 2576.97 420.543 2577.53 421.301C2577.96 421.445 2580.43 422.268 2583.02 423.132L2580.44 420.878C2580.44 420.878 2576.92 407.812 2577.84 407.504C2577.85 407.501 2577.86 407.498 2577.87 407.498C2578.84 407.498 2582.04 418.86 2582.32 419.676C2582.95 420.228 2585.07 421.056 2587.73 422.587L2584.93 415.405C2584.93 415.405 2586.2 403.555 2587.14 403.555C2587.15 403.555 2587.16 403.556 2587.17 403.557C2588.12 403.747 2586.98 413.441 2586.74 414.648C2587.08 415.178 2589.23 418.464 2591.37 421.758C2592.69 421.26 2594.12 421.015 2595.58 421.015C2597.25 421.015 2598.97 421.339 2600.65 421.978C2598.5 417.42 2598.67 412.669 2601.51 409.833C2602.4 408.932 2603.5 408.304 2604.71 407.932C2604.86 407.103 2605.24 406.316 2605.87 405.684C2606.69 404.864 2607.78 404.456 2608.87 404.456C2610.02 404.456 2611.18 404.904 2612.07 405.794C2612.92 406.645 2613.36 407.744 2613.4 408.839C2614.77 406.014 2616.39 402.203 2616.27 400.968C2616.01 398.174 2612.77 393.227 2612.74 393.177C2612.53 392.858 2612.62 392.427 2612.94 392.215C2613.05 392.138 2613.19 392.101 2613.32 392.101C2613.54 392.101 2613.76 392.211 2613.9 392.415C2614.04 392.628 2617.36 397.699 2617.66 400.839C2617.82 402.635 2615.76 407.162 2614.64 409.474C2616.21 410.337 2617.75 411.478 2619.16 412.883C2620.56 414.286 2621.7 415.825 2622.57 417.404C2624.79 416.323 2629.06 414.374 2630.98 414.374C2631.06 414.374 2631.13 414.376 2631.2 414.383C2634.34 414.679 2639.41 418 2639.62 418.141C2639.95 418.351 2640.03 418.783 2639.82 419.103C2639.69 419.305 2639.47 419.415 2639.24 419.415C2639.11 419.415 2638.98 419.378 2638.86 419.301C2638.81 419.268 2633.87 416.028 2631.07 415.767C2631.03 415.763 2630.98 415.761 2630.94 415.761C2629.58 415.761 2625.93 417.314 2623.2 418.639C2624.3 418.676 2625.4 419.121 2626.25 419.973C2627.99 421.713 2628.03 424.485 2626.36 426.164C2625.73 426.796 2624.94 427.184 2624.11 427.328C2623.74 428.545 2623.11 429.637 2622.21 430.535C2620.64 432.101 2618.5 432.851 2616.12 432.851C2614.19 432.851 2612.11 432.354 2610.06 431.395C2611.26 434.521 2611.35 437.83 2610.28 440.667C2613.57 442.814 2616.87 444.957 2617.39 445.303C2618.26 445.13 2623.45 444.5 2626.41 444.5C2627.6 444.5 2628.43 444.6 2628.48 444.871C2628.68 445.823 2616.64 447.108 2616.64 447.108L2609.45 444.312C2610.99 446.97 2611.81 449.094 2612.36 449.724C2613.19 450.002 2624.84 453.286 2624.53 454.205C2624.5 454.312 2624.3 454.357 2623.96 454.357C2621.39 454.357 2611.16 451.595 2611.16 451.595L2608.91 449.018C2609.77 451.615 2610.59 454.082 2610.74 454.514C2611.53 455.098 2618.69 461.372 2618.12 462.151C2618.09 462.192 2618.04 462.209 2617.97 462.209C2616.72 462.209 2609.19 455.652 2609.19 455.652L2604.82 446.539C2604.37 446.748 2603.91 446.919 2603.43 447.065C2605.18 455.978 2607.53 469.058 2609.39 483.321C2612.43 506.657 2611.74 531.113 2609.88 535.738C2609.73 536.11 2609.49 536.282 2609.19 536.282Z" fill="black"/>
<path d="M2810.79 568.043C2750.59 568.043 2701.79 519.241 2701.79 459.042C2701.79 398.843 2750.59 350.041 2810.79 350.041C2870.99 350.041 2919.79 398.843 2919.79 459.042C2919.79 519.241 2870.99 568.043 2810.79 568.043ZM2810.79 366.817C2759.85 366.817 2718.56 408.108 2718.56 459.041C2718.56 509.976 2759.85 551.267 2810.79 551.267C2861.72 551.267 2903.01 509.976 2903.01 459.041C2903.01 408.108 2861.72 366.817 2810.79 366.817Z" fill="black"/>
<path d="M1152.42 128.812V103.653H1165.17C1166.2 103.653 1167.31 103.949 1168.52 104.54C1169.72 105.108 1170.74 105.994 1171.58 107.199C1172.45 108.38 1172.88 109.88 1172.88 111.699C1172.88 113.54 1172.44 115.108 1171.55 116.403C1170.66 117.676 1169.58 118.642 1168.31 119.301C1167.06 119.96 1165.88 120.29 1164.77 120.29H1155.56V116.199H1163.06C1163.81 116.199 1164.62 115.824 1165.48 115.074C1166.37 114.324 1166.81 113.199 1166.81 111.699C1166.81 110.153 1166.37 109.108 1165.48 108.562C1164.62 108.017 1163.86 107.744 1163.2 107.744H1157.95V128.812H1152.42ZM1167.63 116.949L1173.9 128.812H1167.83L1161.7 116.949H1167.63ZM1161.97 143.812C1158.2 143.812 1154.66 143.108 1151.37 141.699C1148.07 140.29 1145.17 138.335 1142.67 135.835C1140.17 133.335 1138.22 130.437 1136.81 127.142C1135.4 123.846 1134.7 120.312 1134.7 116.54C1134.7 112.767 1135.4 109.233 1136.81 105.937C1138.22 102.642 1140.17 99.7441 1142.67 97.2441C1145.17 94.7441 1148.07 92.7896 1151.37 91.3805C1154.66 89.9714 1158.2 89.2668 1161.97 89.2668C1165.74 89.2668 1169.28 89.9714 1172.57 91.3805C1175.87 92.7896 1178.77 94.7441 1181.27 97.2441C1183.77 99.7441 1185.72 102.642 1187.13 105.937C1188.54 109.233 1189.24 112.767 1189.24 116.54C1189.24 120.312 1188.54 123.846 1187.13 127.142C1185.72 130.437 1183.77 133.335 1181.27 135.835C1178.77 138.335 1175.87 140.29 1172.57 141.699C1169.28 143.108 1165.74 143.812 1161.97 143.812ZM1161.97 137.267C1165.79 137.267 1169.27 136.335 1172.4 134.471C1175.54 132.608 1178.04 130.108 1179.9 126.971C1181.77 123.835 1182.7 120.358 1182.7 116.54C1182.7 112.721 1181.77 109.244 1179.9 106.108C1178.04 102.971 1175.54 100.471 1172.4 98.6077C1169.27 96.7441 1165.79 95.8123 1161.97 95.8123C1158.15 95.8123 1154.67 96.7441 1151.54 98.6077C1148.4 100.471 1145.9 102.971 1144.04 106.108C1142.17 109.244 1141.24 112.721 1141.24 116.54C1141.24 120.358 1142.17 123.835 1144.04 126.971C1145.9 130.108 1148.4 132.608 1151.54 134.471C1154.67 136.335 1158.15 137.267 1161.97 137.267Z" fill="black"/>
<path d="M2699.29 562.221L2691.88 545.494H2694.88L2700.06 557.767L2705.24 545.494H2708.24L2700.83 562.221H2699.29ZM2691.33 562.221V545.494H2694.24V562.221H2691.33ZM2705.88 562.221V545.494H2708.79V562.221H2705.88ZM2680.42 562.221V546.949H2683.33V562.221H2680.42ZM2675.33 548.04V545.494H2688.42V548.04H2675.33Z" fill="black"/>
<path d="M660.126 1.60042V99.3492C660.126 103.634 660.379 107.665 661.136 111.944C662.143 119.255 666.673 123.787 673.732 125.549C683.306 127.824 692.88 127.824 702.454 125.549C711.024 123.281 715.048 117.992 715.554 108.418C715.806 105.902 715.806 103.381 715.806 100.865V4.6265V1.8533H731.928C731.928 2.61073 732.181 3.36329 732.181 3.86906V106.407C732.181 111.944 731.422 117.238 729.659 122.275C727.144 129.082 722.107 133.612 715.301 136.381C707.748 139.408 699.933 140.166 691.869 140.418C684.569 140.671 677.005 140.166 669.958 137.892C662.9 135.628 656.853 131.597 652.569 125.296C652.316 125.044 652.316 124.791 652.063 124.538C643.505 136.634 631.158 140.166 617.306 140.418C608.485 140.671 599.662 140.166 590.847 137.392C579.509 133.865 573.462 125.801 571.952 113.965C571.452 109.681 571.199 105.397 571.199 101.118V4.37361V1.8533H587.573C587.573 2.86361 587.826 3.61619 587.826 4.6265V102.881C587.826 105.397 588.079 108.165 588.332 110.687C589.589 120.008 593.62 124.291 602.942 126.307C611.505 128.071 620.073 128.071 628.391 126.307C638.21 124.291 642.748 118.749 643.252 107.917C643.505 105.144 643.505 102.377 643.505 99.6021V4.37361C643.505 1.85329 643.505 1.8533 646.022 1.8533H657.611C658.369 1.60041 659.121 1.60042 660.126 1.60042Z" fill="#040606"/>
<path d="M891.402 92.548H907.523C907.523 93.3006 907.523 94.0592 907.776 94.8167C908.029 100.107 907.776 105.142 908.282 110.432C909.033 117.991 913.57 123.027 920.623 124.789C925.919 126.06 931.46 126.811 936.744 127.317C946.072 128.071 955.392 127.823 964.713 125.807C965.978 125.554 967.235 125.042 968.745 124.536C975.545 122.275 979.576 117.744 980.082 110.685C980.587 105.648 980.587 100.865 980.335 95.8221C979.829 88.5165 975.545 83.4734 967.986 81.465C961.686 79.9537 955.14 78.9422 948.586 77.938C937.508 76.1751 926.172 74.4122 915.086 72.3904C910.044 71.3849 905.259 69.3692 900.976 66.0951C895.18 61.5638 891.907 55.5165 891.402 48.4577C890.896 41.405 891.149 34.3534 891.655 27.5524C892.406 15.9635 898.713 8.6579 909.539 4.62637C917.35 1.85196 925.666 0.847713 933.722 0.341948C944.056 -0.163817 954.641 -0.163809 964.966 1.35349C970.508 2.10484 975.798 3.36195 981.087 5.6306C988.898 9.15758 993.688 14.952 995.704 23.2679C996.961 29.3165 996.961 35.3577 996.961 41.6579H980.587V35.3577C980.335 32.8361 980.335 30.3207 979.829 27.8052C978.824 22.5105 975.545 18.7307 970.508 16.7149C963.709 13.9478 956.65 13.442 949.597 13.1891C940.529 12.9362 931.706 12.9362 922.89 15.2049C921.38 15.4578 920.123 15.9635 918.607 16.462C912.565 18.7307 909.033 23.0151 908.534 29.5633C908.029 35.1109 907.776 40.6536 908.282 46.1891C908.78 52.4893 912.818 56.522 918.607 58.032C924.149 59.542 929.95 60.3006 935.739 61.311C948.333 63.3206 960.681 65.3364 973.276 67.6063C978.319 68.6166 982.85 70.6275 987.135 73.6536C993.182 78.1909 996.456 84.2321 997.214 91.5438C997.966 99.6068 997.966 107.664 996.708 115.728C995.198 126.06 989.15 132.607 979.576 136.128C972.272 138.908 964.713 139.912 956.903 140.418C946.325 141.169 935.739 140.924 924.913 139.66C918.86 138.908 912.818 137.644 907.27 135.122C899.213 131.343 894.169 125.042 892.659 116.233C890.896 108.165 891.655 100.359 891.402 92.548Z" fill="#040606"/>
<path d="M848.826 71.1345V73.4031H775.761V34.8543C775.761 32.3389 776.014 30.0715 776.52 27.8016C777.783 21.7543 781.562 17.9756 787.351 15.9599C792.899 13.9441 798.689 13.4444 804.49 13.1915C814.057 12.6858 823.632 12.6858 832.952 14.9544C834.469 15.2073 835.979 15.707 837.236 16.2128C844.043 18.7331 847.568 23.5184 848.068 30.5699C848.32 33.3443 848.573 36.1114 848.573 38.8871C849.079 49.4656 848.826 60.3031 848.826 71.1345ZM865.452 138.905V136.383V37.3759C865.452 34.3559 865.2 31.0757 864.948 28.0557C863.942 16.4656 858.148 8.40136 847.316 4.62272C844.795 3.61848 842.02 2.85983 839.252 2.35406C827.41 -0.161387 815.567 -0.16139 803.479 0.344375C795.415 0.597257 787.604 1.60149 780.052 3.87014C770.472 6.89136 763.166 12.4329 761.15 22.7658C760.399 26.7973 759.893 30.8228 759.893 34.8543V136.889V138.905H776.267V88.266H849.331V138.905H865.452Z" fill="#040606"/>
<path d="M528.368 103.133C528.368 105.647 528.117 108.164 527.864 110.69C526.858 116.984 523.585 121.515 517.537 123.79C511.995 126.058 506.2 126.557 500.405 127.063C490.831 127.57 481.258 127.57 471.684 125.806H471.184C459.594 123.284 454.552 117.49 454.552 105.394C454.299 82.7209 454.552 60.0466 454.552 37.3722C454.552 34.6039 454.805 32.0824 455.311 29.314C456.315 23.0139 459.841 18.7355 465.889 16.4608C471.684 14.1995 477.731 13.4408 483.78 13.1879C493.353 12.6882 502.927 12.6882 512.248 14.6979C513.252 14.9508 514.258 15.2037 515.268 15.4566C523.838 17.9781 527.864 23.268 528.368 32.0824C528.621 36.1151 528.621 39.8938 528.621 43.9253V70.1254C528.368 81.2109 528.368 92.0423 528.368 103.133ZM544.742 70.1254H544.49C544.49 56.7737 544.742 43.4195 544.49 30.0666C544.243 18.9823 539.454 10.4196 528.621 5.88228C525.848 4.62516 522.827 3.61364 519.799 2.86229C507.458 0.0878734 494.864 -0.15893 482.262 0.33954C473.447 0.845305 464.884 1.59787 456.568 4.62517C447.752 7.89805 441.452 13.6937 439.435 23.0139C438.684 27.0466 438.178 31.0781 438.178 35.3565V102.121C438.178 105.394 438.178 108.668 438.684 112.201C439.688 123.79 445.231 132.1 456.315 135.878C460.852 137.397 465.636 138.654 470.427 139.406C482.521 141.168 494.611 141.168 506.699 140.164C513.758 139.658 520.811 138.401 527.358 135.878C536.685 132.353 542.733 125.806 544.243 115.727C544.742 111.948 545.248 108.164 545.248 104.137C544.995 92.5468 544.742 81.2109 544.742 70.1254Z" fill="#040606"/>
<path d="M1112.6 67.6062C1110.84 78.1908 1104.78 83.9804 1094.21 85.7433C1091.43 86.2478 1088.66 86.2478 1086.15 86.5007H1043.07H1040.55V14.7003H1042.56H1084.38C1088.66 14.7003 1092.95 15.2049 1097.23 15.9635C1106.55 18.2273 1112.35 24.5275 1113.1 34.1005C1113.61 41.9107 1113.61 49.7221 1113.61 57.2806C1113.35 60.8003 1113.35 64.3321 1112.6 67.6062ZM1129.22 31.0805C1128.47 17.9732 1121.16 8.91076 1108.32 4.62634C1101.26 2.3577 1093.96 1.60026 1086.39 1.60026H1025.93H1023.91V138.902H1040.29V99.602H1042.81H1084.13C1090.68 99.602 1097.48 99.0962 1104.03 97.585C1119.15 94.0592 1128.22 84.2333 1129.22 69.1162C1129.98 56.2691 1129.98 43.6748 1129.22 31.0805Z" fill="#040606"/>
</svg>
