<svg width="142" height="31" viewBox="0 0 142 31" fill="none" xmlns="http://www.w3.org/2000/svg">
<g clip-path="url(#clip0_3921_243)">
<path d="M14.3539 16.7482C14.3539 16.3316 14.2823 15.9297 14.1387 15.5473C13.9959 15.1631 13.8024 14.8285 13.5599 14.5432C13.3177 14.2578 13.0314 14.0329 12.6999 13.8685C12.3692 13.704 12.0056 13.622 11.6086 13.622H4.59851V19.7751H11.3773C11.7956 19.7751 12.1874 19.6974 12.5523 19.545C12.9155 19.3905 13.2288 19.1764 13.4943 18.9018C13.759 18.6286 13.9677 18.3048 14.1226 17.9314C14.2758 17.5593 14.3539 17.1643 14.3539 16.7482ZM4.59851 4.14671V10.0356H10.6831C11.4541 10.0356 12.1106 9.77361 12.6504 9.24611C13.191 8.7199 13.4605 7.99551 13.4605 7.07479C13.4605 6.17645 13.2127 5.46287 12.7176 4.9367C12.2208 4.41048 11.6086 4.14671 10.8823 4.14671H4.59851ZM18.9507 17.6033C18.9507 18.5901 18.7528 19.4561 18.3558 20.202C17.9587 20.948 17.4125 21.573 16.7182 22.0777C16.024 22.5823 15.2191 22.9647 14.304 23.2289C13.3889 23.4922 12.4135 23.6239 11.3773 23.6239H0.0351562V0.264648H12.6018C13.4158 0.264648 14.156 0.439909 14.8169 0.790863C15.479 1.14268 16.0401 1.59637 16.503 2.15625C16.9668 2.7157 17.3248 3.35156 17.5778 4.06512C17.8307 4.77739 17.9587 5.49615 17.9587 6.2192C17.9587 7.35966 17.6719 8.42935 17.0987 9.42698C16.5256 10.4254 15.6873 11.1658 14.5852 11.6475C15.9294 12.0425 16.9937 12.7509 17.777 13.7696C18.5588 14.7897 18.9507 16.0683 18.9507 17.6033Z" fill="#FD0E35"/>
<path d="M25.302 23.9539C23.5165 23.9539 22.1614 23.3837 21.2342 22.2428C20.3086 21.1027 19.8457 19.4127 19.8457 17.1762V6.38477H24.2767V16.2218C24.2767 18.8762 25.2361 20.2031 27.1552 20.2031C28.0147 20.2031 28.8466 19.9458 29.651 19.4304C30.4559 18.915 31.1111 18.1307 31.6183 17.0769V6.38477H36.0498V18.5576C36.0498 19.0177 36.1326 19.3475 36.2984 19.5457C36.4641 19.7421 36.7332 19.8522 37.1085 19.8737V23.6246C36.6672 23.7114 36.2984 23.7662 36.0012 23.7891C35.7022 23.8107 35.4332 23.8214 35.1911 23.8214C34.397 23.8214 33.7514 23.6405 33.2559 23.2792C32.7595 22.9179 32.4675 22.4181 32.3798 21.7826L32.2804 20.4013C31.5081 21.5845 30.5162 22.4733 29.3039 23.0647C28.0916 23.6578 26.7577 23.9539 25.302 23.9539Z" fill="#FD0E35"/>
<path d="M47.1502 20.2024C47.6343 20.2024 48.0976 20.126 48.5386 19.9724C48.9801 19.8196 49.3877 19.6106 49.7634 19.3473C50.1373 19.0844 50.4685 18.7767 50.7553 18.4261C51.0416 18.0752 51.2626 17.7017 51.4159 17.3068V13.1942C51.0203 12.1862 50.3961 11.3751 49.5478 10.7604C48.6991 10.1462 47.8121 9.83963 46.8865 9.83963C46.2014 9.83963 45.5852 9.98643 45.0335 10.2825C44.4831 10.5795 44.008 10.975 43.6127 11.4675C43.2156 11.9613 42.9115 12.5264 42.7028 13.1623C42.4932 13.7981 42.3882 14.4564 42.3882 15.1355C42.3882 15.8382 42.5093 16.4956 42.7527 17.1099C42.9948 17.7246 43.3315 18.2612 43.7606 18.7218C44.191 19.1824 44.6916 19.5454 45.2651 19.8075C45.8382 20.0712 46.4664 20.2024 47.1502 20.2024ZM45.6621 23.7232C44.4938 23.7232 43.4348 23.4927 42.4876 23.0325C41.5391 22.5719 40.7181 21.9413 40.0239 21.1409C39.3296 20.3401 38.7938 19.4125 38.4197 18.3601C38.0444 17.3068 37.8574 16.1888 37.8574 15.0042C37.8574 13.7541 38.0566 12.592 38.4536 11.5167C38.8506 10.4418 39.4008 9.4995 40.1059 8.68663C40.8123 7.87682 41.6614 7.23964 42.6533 6.77907C43.6448 6.31846 44.7361 6.08838 45.9271 6.08838C47.2715 6.08838 48.4514 6.38969 49.4647 6.99317C50.4792 7.59707 51.3177 8.40303 51.9783 9.41101V6.3841H55.8484V22.802C55.8484 24.0742 55.6044 25.2142 55.1202 26.2239C54.6347 27.2319 53.9683 28.0875 53.1196 28.7889C52.2704 29.4917 51.2554 30.0287 50.0768 30.4021C48.8969 30.7742 47.613 30.9603 46.2245 30.9603C44.3286 30.9603 42.7353 30.6482 41.4462 30.0231C40.1558 29.398 39.0485 28.5144 38.1225 27.3752L40.5363 25.0389C41.1971 25.8505 42.0302 26.4864 43.0326 26.947C44.0366 27.4071 45.0993 27.6376 46.2245 27.6376C46.9079 27.6376 47.5632 27.544 48.1918 27.3575C48.82 27.1719 49.3771 26.8814 49.8617 26.4864C50.3472 26.0914 50.7268 25.5868 51.0025 24.9738C51.2786 24.3591 51.4159 23.6347 51.4159 22.802V20.6307C50.8424 21.6171 50.0377 22.379 49.0018 22.9173C47.9655 23.4538 46.8527 23.7232 45.6621 23.7232Z" fill="#FD0E35"/>
<path d="M103.518 0.00146484V1.97336H107.171V4.10023H109.23V5.68535H111.135V7.54113H112.962V11.3692H114.944V0.00146484H103.518Z" fill="#FD0E35"/>
<path d="M107.526 6.43934L107.084 5.99512C103.18 8.85022 100.719 13.9207 100.719 19.5541C100.719 23.9861 102.317 27.9981 104.9 30.8985L106.3 29.4645C103.77 26.6715 102.195 22.7623 102.195 18.4326C102.195 13.5054 104.36 9.24999 107.526 6.43934Z" fill="#BFBFBF"/>
<path d="M103.516 17.2723C103.516 13.1575 105.266 9.46845 108.036 6.95132L107.64 6.5542C104.453 9.29317 102.506 13.6872 102.506 18.509C102.506 22.6989 104.057 26.4851 106.554 29.2034L108.083 27.6377C105.286 25.1189 103.516 21.4108 103.516 17.2723Z" fill="#BFBFBF"/>
<path d="M105.161 16.1067C105.161 12.7417 106.49 9.77916 108.499 7.41877L108.149 7.06738C105.537 9.54821 103.992 13.1829 103.992 17.1181C103.992 21.1543 105.714 24.7777 108.445 27.2659L109.56 26.1246C106.859 23.658 105.161 20.0841 105.161 16.1067Z" fill="#BFBFBF"/>
<path d="M105.654 16.1067C105.654 19.9498 107.252 23.4149 109.809 25.8699L111.254 24.3896C108.508 22.0599 106.776 18.6678 106.776 14.8884C106.776 12.3049 107.59 9.90564 108.979 7.89962L108.669 7.58838C106.788 9.90994 105.654 12.873 105.654 16.1067Z" fill="#BFBFBF"/>
<path d="M58.5508 23.5105V6.35303H60.7826V21.6674H69.3497V23.5105H58.5508ZM77.6657 23.7785C76.4177 23.7785 75.3231 23.5021 74.3811 22.9492C73.4452 22.3962 72.7134 21.6227 72.1853 20.6285C71.6633 19.6344 71.4024 18.4727 71.4024 17.1434C71.4024 15.803 71.6633 14.6329 72.1853 13.6332C72.7134 12.6335 73.4452 11.8572 74.3811 11.3042C75.3231 10.7513 76.4177 10.4748 77.6657 10.4748C78.9136 10.4748 80.0055 10.7513 80.9413 11.3042C81.8834 11.8572 82.6152 12.6335 83.1371 13.6332C83.6653 14.6329 83.9289 15.803 83.9289 17.1434C83.9289 18.4727 83.6653 19.6344 83.1371 20.6285C82.6152 21.6227 81.8834 22.3962 80.9413 22.9492C80.0055 23.5021 78.9136 23.7785 77.6657 23.7785ZM77.6657 22.0025C78.6135 22.0025 79.3937 21.7763 80.0055 21.3239C80.6172 20.8715 81.0703 20.2767 81.3641 19.5395C81.6585 18.8022 81.8052 18.0036 81.8052 17.1434C81.8052 16.2833 81.6585 15.4819 81.3641 14.739C81.0703 13.9962 80.6172 13.3958 80.0055 12.9379C79.3937 12.4799 78.6135 12.2509 77.6657 12.2509C76.7178 12.2509 75.938 12.4799 75.3258 12.9379C74.7141 13.3958 74.261 13.9962 73.9672 14.739C73.6733 15.4819 73.5261 16.2833 73.5261 17.1434C73.5261 18.0036 73.6733 18.8022 73.9672 19.5395C74.261 20.2767 74.7141 20.8715 75.3258 21.3239C75.938 21.7763 76.7178 22.0025 77.6657 22.0025ZM92.2836 28.6041C91.2575 28.6041 90.3759 28.4812 89.6378 28.2354C88.8998 27.9953 88.285 27.6769 87.7928 27.2804C87.3069 26.8894 86.9201 26.4705 86.632 26.0237L88.3241 24.9179C88.5162 25.1525 88.7589 25.4206 89.0528 25.7221C89.3471 26.0293 89.749 26.2946 90.2589 26.518C90.7746 26.747 91.4495 26.8615 92.2836 26.8615C93.3995 26.8615 94.3202 26.6102 95.0462 26.1075C95.7722 25.6049 96.135 24.8174 96.135 23.745V21.1312H95.9549C95.7993 21.3658 95.577 21.6562 95.2894 22.0025C95.0071 22.3431 94.5994 22.6476 94.0655 22.9156C93.5373 23.1781 92.8233 23.3094 91.9234 23.3094C90.8075 23.3094 89.8059 23.0636 88.9181 22.5722C88.036 22.0807 87.3371 21.3658 86.821 20.4275C86.311 19.4892 86.0563 18.3498 86.0563 17.0094C86.0563 15.6913 86.3052 14.5436 86.8032 13.5662C87.3011 12.5832 87.9942 11.8236 88.8821 11.2874C89.7699 10.7457 90.7955 10.4748 91.9595 10.4748C92.8593 10.4748 93.5733 10.6145 94.1015 10.8937C94.6354 11.1674 95.0431 11.4802 95.3254 11.832C95.613 12.1783 95.8353 12.4631 95.9909 12.6865H96.207V10.6424H98.2588V23.8791C98.2588 24.9849 97.9889 25.8841 97.4492 26.5767C96.9152 27.2748 96.195 27.7859 95.2894 28.1098C94.3891 28.4393 93.3875 28.6041 92.2836 28.6041ZM92.2115 21.5333C93.0634 21.5333 93.7836 21.3518 94.3713 20.9888C94.9591 20.6257 95.4063 20.1035 95.7122 19.4222C96.0181 18.7408 96.171 17.9253 96.171 16.9759C96.171 16.0487 96.0212 15.2305 95.7211 14.5212C95.4214 13.8119 94.9773 13.2562 94.3891 12.8541C93.8014 12.452 93.0754 12.2509 92.2115 12.2509C91.3117 12.2509 90.5617 12.4631 89.9619 12.8876C89.368 13.3121 88.9207 13.8818 88.6211 14.5966C88.3268 15.3115 88.1801 16.1046 88.1801 16.9759C88.1801 17.8695 88.3299 18.6598 88.63 19.3467C88.9359 20.0281 89.3858 20.5643 89.9797 20.9553C90.5799 21.3406 91.3237 21.5333 92.2115 21.5333Z" fill="white"/>
<path d="M131.188 23.4914V6.33398H133.419V21.6483H141.986V23.4914H131.188Z" fill="#F2F2F2"/>
<path d="M63.4999 27.8037C63.327 27.8037 63.1785 27.783 63.0545 27.7416C62.93 27.7011 62.8264 27.6475 62.7437 27.5807C62.6619 27.5149 62.5966 27.4443 62.5481 27.3691L62.8331 27.1828C62.8655 27.2223 62.9064 27.2675 62.9558 27.3183C63.0051 27.37 63.0731 27.4147 63.159 27.4523C63.2456 27.4909 63.3595 27.5102 63.4999 27.5102C63.688 27.5102 63.8427 27.4678 63.965 27.3832C64.0872 27.2985 64.1486 27.1659 64.1486 26.9853V26.5451H64.1184C64.0921 26.5846 64.0548 26.6335 64.0059 26.6918C63.9588 26.7492 63.8898 26.8004 63.8 26.8456C63.7111 26.8898 63.5906 26.9119 63.439 26.9119C63.2514 26.9119 63.0825 26.8705 62.9331 26.7877C62.7846 26.705 62.6668 26.5846 62.5801 26.4265C62.4939 26.2685 62.4512 26.0766 62.4512 25.8509C62.4512 25.6289 62.493 25.4356 62.577 25.271C62.6606 25.1054 62.7775 24.9775 62.9269 24.8872C63.0767 24.7959 63.2492 24.7503 63.4453 24.7503C63.5969 24.7503 63.7169 24.7738 63.8058 24.8209C63.8961 24.8669 63.9645 24.9196 64.0121 24.9789C64.0606 25.0372 64.0979 25.0852 64.1241 25.1228H64.1606V24.7785H64.506V27.0079C64.506 27.1941 64.4607 27.3456 64.37 27.4622C64.2797 27.5798 64.1588 27.6658 64.0059 27.7204C63.8547 27.7759 63.6858 27.8037 63.4999 27.8037ZM63.4879 26.6128C63.6311 26.6128 63.7525 26.5822 63.8516 26.5211C63.9503 26.4599 64.0259 26.372 64.0775 26.2572C64.129 26.1424 64.1548 26.0051 64.1548 25.8452C64.1548 25.6891 64.1295 25.5513 64.0788 25.4318C64.0281 25.3124 63.9534 25.2187 63.8547 25.151C63.7556 25.0833 63.6333 25.0494 63.4879 25.0494C63.3363 25.0494 63.2101 25.0852 63.1087 25.1567C63.0087 25.2282 62.9335 25.3241 62.8829 25.4445C62.8335 25.5649 62.8086 25.6985 62.8086 25.8452C62.8086 25.9957 62.834 26.1288 62.8846 26.2445C62.9362 26.3593 63.0118 26.4496 63.1118 26.5154C63.2127 26.5803 63.3381 26.6128 63.4879 26.6128ZM64.6941 26.9458V24.7785H65.052V26.9458H64.6941ZM64.8759 24.4173C64.8061 24.4173 64.7461 24.3952 64.6959 24.351C64.6461 24.3068 64.6216 24.2536 64.6216 24.1916C64.6216 24.1295 64.6461 24.0763 64.6959 24.0321C64.7461 23.9879 64.8061 23.9658 64.8759 23.9658C64.9457 23.9658 65.0053 23.9879 65.0551 24.0321C65.1053 24.0763 65.1307 24.1295 65.1307 24.1916C65.1307 24.2536 65.1053 24.3068 65.0551 24.351C65.0053 24.3952 64.9457 24.4173 64.8759 24.4173ZM65.5979 25.6421V26.9458H65.24V24.7785H65.5859V25.1172H65.6162C65.6708 25.0071 65.7535 24.9187 65.8647 24.8519C65.9758 24.7842 66.1194 24.7503 66.295 24.7503C66.4529 24.7503 66.5907 24.7804 66.709 24.8406C66.8272 24.8999 66.9188 24.9902 66.9846 25.1115C67.0504 25.2319 67.0833 25.3843 67.0833 25.5687V26.9458H66.7254V25.5912C66.7254 25.421 66.6778 25.2883 66.5831 25.1934C66.488 25.0974 66.3577 25.0494 66.1919 25.0494C66.0776 25.0494 65.9758 25.0725 65.886 25.1186C65.7971 25.1646 65.7269 25.2319 65.6753 25.3203C65.6237 25.4088 65.5979 25.516 65.5979 25.6421ZM68.2099 27.8037C68.0369 27.8037 67.8884 27.783 67.7639 27.7416C67.6399 27.7011 67.5363 27.6475 67.4532 27.5807C67.3714 27.5149 67.3065 27.4443 67.258 27.3691L67.543 27.1828C67.575 27.2223 67.6159 27.2675 67.6657 27.3183C67.715 27.37 67.7826 27.4147 67.8689 27.4523C67.9556 27.4909 68.0694 27.5102 68.2099 27.5102C68.3975 27.5102 68.5526 27.4678 68.6749 27.3832C68.7972 27.2985 68.8585 27.1659 68.8585 26.9853V26.5451H68.8283C68.8016 26.5846 68.7643 26.6335 68.7158 26.6918C68.6682 26.7492 68.5998 26.8004 68.51 26.8456C68.421 26.8898 68.3006 26.9119 68.149 26.9119C67.9613 26.9119 67.7924 26.8705 67.643 26.7877C67.4945 26.705 67.3767 26.5846 67.2896 26.4265C67.2038 26.2685 67.1611 26.0766 67.1611 25.8509C67.1611 25.6289 67.2029 25.4356 67.2865 25.271C67.3705 25.1054 67.4874 24.9775 67.6368 24.8872C67.7862 24.7959 67.9591 24.7503 68.1552 24.7503C68.3068 24.7503 68.4268 24.7738 68.5157 24.8209C68.606 24.8669 68.6745 24.9196 68.722 24.9789C68.7705 25.0372 68.8078 25.0852 68.8341 25.1228H68.8705V24.7785H69.216V27.0079C69.216 27.1941 69.1706 27.3456 69.0795 27.4622C68.9897 27.5798 68.8683 27.6658 68.7158 27.7204C68.5642 27.7759 68.3957 27.8037 68.2099 27.8037ZM68.1974 26.6128C68.341 26.6128 68.4624 26.5822 68.5615 26.5211C68.6602 26.4599 68.7358 26.372 68.7869 26.2572C68.8385 26.1424 68.8643 26.0051 68.8643 25.8452C68.8643 25.6891 68.8394 25.5513 68.7887 25.4318C68.738 25.3124 68.6633 25.2187 68.5642 25.151C68.4655 25.0833 68.3432 25.0494 68.1974 25.0494C68.0458 25.0494 67.9196 25.0852 67.8186 25.1567C67.7186 25.2282 67.6435 25.3241 67.5928 25.4445C67.5434 25.5649 67.5185 25.6985 67.5185 25.8452C67.5185 25.9957 67.5439 26.1288 67.5946 26.2445C67.6457 26.3593 67.7217 26.4496 67.8217 26.5154C67.9227 26.5803 68.048 26.6128 68.1974 26.6128Z" fill="#F2F2F2"/>
<path d="M114.426 23.5106C111.75 23.5106 109.58 21.4907 109.58 18.9992C109.58 16.5076 111.75 14.4878 114.426 14.4878C117.102 14.4878 119.272 16.5076 119.272 18.9992C119.272 21.4907 117.102 23.5106 114.426 23.5106ZM114.426 15.1821C112.161 15.1821 110.326 16.8911 110.326 18.9991C110.326 21.1073 112.161 22.8162 114.426 22.8162C116.69 22.8162 118.526 21.1073 118.526 18.9991C118.526 16.8911 116.69 15.1821 114.426 15.1821Z" fill="#F2F2F2"/>
<path d="M116 22.196C115.845 22.1959 115.28 21.2602 115.204 20.9934C115.046 20.4348 115.08 20.1989 115.089 20.1234C115.119 19.8931 115.359 19.778 115.373 19.4665C115.377 19.3703 115.43 18.8893 115.472 18.5137C115.368 18.495 115.266 18.4518 115.175 18.3849C115.448 18.7261 115.046 19.135 114.462 19.6791C113.842 20.2566 112.465 20.7926 112.465 20.7926C112.465 20.7926 113.041 19.5108 113.661 18.9333C114.116 18.5089 114.484 18.1877 114.798 18.1877C114.886 18.1877 114.97 18.2132 115.051 18.2691C114.979 18.1844 114.933 18.0891 114.913 17.9934C114.509 18.0324 113.992 18.0808 113.889 18.085C113.554 18.0986 113.431 18.3221 113.183 18.3491C113.155 18.3522 113.105 18.3582 113.027 18.3582C112.881 18.3582 112.638 18.3378 112.249 18.2419C111.937 18.1652 110.776 17.5502 110.981 17.4729C111.086 17.4334 111.42 17.4067 111.86 17.4067C112.283 17.4067 112.803 17.4314 113.312 17.4931C113.946 17.57 114.527 17.6673 114.924 17.7397C114.93 17.7198 114.938 17.7005 114.947 17.6818L114.542 17.5011C114.542 17.5011 114.218 17.1554 114.253 17.1316C114.254 17.1306 114.256 17.1302 114.258 17.1302C114.308 17.1302 114.568 17.4057 114.593 17.4371C114.612 17.443 114.722 17.4771 114.837 17.5128L114.722 17.4196C114.722 17.4196 114.565 16.8788 114.606 16.866C114.607 16.8659 114.607 16.8658 114.608 16.8658C114.651 16.8658 114.793 17.336 114.806 17.3698C114.834 17.3926 114.928 17.4269 115.046 17.4903L114.922 17.193C114.922 17.193 114.978 16.7026 115.02 16.7026C115.02 16.7026 115.021 16.7026 115.021 16.7027C115.063 16.7105 115.013 17.1117 115.002 17.1617C115.017 17.1836 115.113 17.3196 115.208 17.456C115.267 17.4354 115.33 17.4252 115.395 17.4252C115.469 17.4252 115.546 17.4386 115.62 17.4651C115.525 17.2764 115.532 17.0798 115.659 16.9624C115.698 16.9251 115.747 16.8991 115.801 16.8837C115.808 16.8494 115.825 16.8169 115.853 16.7907C115.889 16.7568 115.937 16.7399 115.986 16.7399C116.037 16.7399 116.089 16.7584 116.128 16.7952C116.166 16.8305 116.186 16.876 116.187 16.9213C116.248 16.8044 116.32 16.6466 116.315 16.5955C116.303 16.4799 116.159 16.2751 116.158 16.273C116.149 16.2598 116.153 16.242 116.167 16.2332C116.172 16.23 116.178 16.2285 116.184 16.2285C116.194 16.2285 116.203 16.2331 116.21 16.2415C116.216 16.2503 116.363 16.4602 116.377 16.5902C116.384 16.6645 116.292 16.8519 116.242 16.9476C116.312 16.9833 116.381 17.0305 116.443 17.0887C116.506 17.1467 116.556 17.2104 116.595 17.2758C116.694 17.231 116.884 17.1504 116.969 17.1504C116.972 17.1504 116.976 17.1504 116.979 17.1507C117.118 17.163 117.344 17.3004 117.353 17.3063C117.368 17.315 117.371 17.3328 117.362 17.3461C117.356 17.3544 117.346 17.359 117.336 17.359C117.33 17.359 117.325 17.3575 117.319 17.3543C117.317 17.3529 117.097 17.2188 116.973 17.208C116.971 17.2079 116.969 17.2078 116.967 17.2078C116.907 17.2078 116.744 17.272 116.623 17.3269C116.672 17.3284 116.721 17.3468 116.759 17.3821C116.836 17.4541 116.838 17.5688 116.763 17.6383C116.735 17.6645 116.7 17.6805 116.663 17.6865C116.647 17.7369 116.619 17.7821 116.579 17.8192C116.509 17.8841 116.414 17.9151 116.308 17.9151C116.222 17.9151 116.13 17.8945 116.039 17.8548C116.092 17.9842 116.096 18.1212 116.049 18.2386C116.195 18.3275 116.342 18.4161 116.365 18.4305C116.403 18.4233 116.634 18.3972 116.766 18.3972C116.819 18.3972 116.856 18.4014 116.858 18.4126C116.867 18.452 116.331 18.5052 116.331 18.5052L116.012 18.3895C116.08 18.4995 116.117 18.5874 116.141 18.6134C116.178 18.625 116.696 18.7609 116.682 18.7989C116.681 18.8033 116.672 18.8052 116.657 18.8052C116.543 18.8052 116.088 18.6909 116.088 18.6909L115.988 18.5842C116.026 18.6917 116.062 18.7938 116.069 18.8117C116.104 18.8359 116.422 19.0955 116.397 19.1278C116.396 19.1295 116.394 19.1302 116.39 19.1302C116.335 19.1302 116 18.8588 116 18.8588L115.806 18.4816C115.786 18.4903 115.765 18.4974 115.744 18.5034C115.822 18.8723 115.926 19.4137 116.009 20.004C116.144 20.9698 116.113 21.982 116.031 22.1734C116.024 22.1888 116.013 22.196 116 22.196Z" fill="#F2F2F2"/>
<path d="M124.963 23.5106C122.287 23.5106 120.117 21.4907 120.117 18.9992C120.117 16.5076 122.287 14.4878 124.963 14.4878C127.64 14.4878 129.809 16.5076 129.809 18.9992C129.809 21.4907 127.64 23.5106 124.963 23.5106ZM124.963 15.1821C122.698 15.1821 120.863 16.8911 120.863 18.9991C120.863 21.1073 122.698 22.8162 124.963 22.8162C127.227 22.8162 129.063 21.1073 129.063 18.9991C129.063 16.8911 127.227 15.1821 124.963 15.1821Z" fill="#F2F2F2"/>
<path d="M51.2351 5.33154V4.29025H51.8019C51.8477 4.29025 51.8971 4.3025 51.9509 4.32696C52.0042 4.35047 52.0495 4.38714 52.0869 4.43701C52.1256 4.48589 52.1447 4.54797 52.1447 4.62326C52.1447 4.69946 52.1251 4.76435 52.0856 4.81795C52.046 4.87064 51.998 4.91062 51.9415 4.9379C51.8859 4.96517 51.8335 4.97883 51.7841 4.97883H51.3747V4.80951H51.7081C51.7415 4.80951 51.7775 4.79399 51.8157 4.76295C51.8553 4.7319 51.8748 4.68534 51.8748 4.62326C51.8748 4.55927 51.8553 4.51602 51.8157 4.49342C51.7775 4.47087 51.7437 4.45957 51.7143 4.45957H51.4809V5.33154H51.2351ZM51.9113 4.84055L52.19 5.33154H51.9202L51.6476 4.84055H51.9113ZM51.6596 5.95237C51.492 5.95237 51.3347 5.92323 51.1884 5.86492C51.0417 5.8066 50.9127 5.72568 50.8016 5.62221C50.6905 5.51874 50.6038 5.3988 50.5411 5.26242C50.4784 5.12601 50.4473 4.97974 50.4473 4.82362C50.4473 4.66746 50.4784 4.5212 50.5411 4.38478C50.6038 4.2484 50.6905 4.12846 50.8016 4.02499C50.9127 3.92152 51.0417 3.84063 51.1884 3.78231C51.3347 3.72399 51.492 3.69482 51.6596 3.69482C51.8273 3.69482 51.9846 3.72399 52.1309 3.78231C52.2776 3.84063 52.4065 3.92152 52.5177 4.02499C52.6288 4.12846 52.7155 4.2484 52.7782 4.38478C52.8409 4.5212 52.872 4.66746 52.872 4.82362C52.872 4.97974 52.8409 5.12601 52.7782 5.26242C52.7155 5.3988 52.6288 5.51874 52.5177 5.62221C52.4065 5.72568 52.2776 5.8066 52.1309 5.86492C51.9846 5.92323 51.8273 5.95237 51.6596 5.95237ZM51.6596 5.68148C51.8295 5.68148 51.9842 5.64291 52.1233 5.56576C52.2629 5.48865 52.3741 5.38518 52.4568 5.25535C52.5399 5.12555 52.5813 4.98164 52.5813 4.82362C52.5813 4.66556 52.5399 4.52165 52.4568 4.39186C52.3741 4.26202 52.2629 4.15855 52.1233 4.08143C51.9842 4.0043 51.8295 3.96573 51.6596 3.96573C51.4898 3.96573 51.3351 4.0043 51.1959 4.08143C51.0563 4.15855 50.9452 4.26202 50.8625 4.39186C50.7794 4.52165 50.738 4.66556 50.738 4.82362C50.738 4.98164 50.7794 5.12555 50.8625 5.25535C50.9452 5.38518 51.0563 5.48865 51.1959 5.56576C51.3351 5.64291 51.4898 5.68148 51.6596 5.68148Z" fill="#F2F2F2"/>
<path d="M120.007 23.2695L119.677 22.5771H119.811L120.041 23.0851L120.271 22.5771H120.405L120.075 23.2695H120.007ZM119.653 23.2695V22.5771H119.782V23.2695H119.653ZM120.3 23.2695V22.5771H120.429V23.2695H120.3ZM119.168 23.2695V22.6374H119.297V23.2695H119.168ZM118.941 22.6825V22.5771H119.523V22.6825H118.941Z" fill="black"/>
<path d="M29.3481 0.0664063V4.11208C29.3481 4.28942 29.3593 4.45626 29.393 4.63336C29.4378 4.93596 29.6391 5.12353 29.953 5.19645C30.3786 5.29061 30.8043 5.29061 31.2299 5.19645C31.6109 5.10259 31.7898 4.88368 31.8123 4.48743C31.8235 4.38329 31.8235 4.27895 31.8235 4.17482V0.191651V0.0768726H32.5403C32.5403 0.108221 32.5515 0.139369 32.5515 0.160302V4.4042C32.5515 4.63336 32.5178 4.85247 32.4394 5.06095C32.3276 5.34268 32.1037 5.53017 31.8011 5.64477C31.4653 5.77006 31.1178 5.80143 30.7593 5.81186C30.4348 5.82233 30.0985 5.80143 29.7852 5.70731C29.4714 5.61361 29.2026 5.44677 29.0121 5.18598C29.0009 5.17555 29.0009 5.16508 28.9896 5.15461C28.6091 5.65525 28.0602 5.80143 27.4444 5.81186C27.0522 5.82233 26.66 5.80143 26.268 5.68662C25.764 5.54064 25.4951 5.20688 25.428 4.71701C25.4058 4.5397 25.3945 4.36239 25.3945 4.18529V0.181184V0.0768726H26.1225C26.1225 0.118688 26.1337 0.149836 26.1337 0.191651V4.25826C26.1337 4.36239 26.145 4.47696 26.1562 4.58134C26.2121 4.96712 26.3913 5.14439 26.8058 5.22783C27.1865 5.30084 27.5674 5.30084 27.9372 5.22783C28.3737 5.14439 28.5755 4.91501 28.5979 4.46669C28.6091 4.35192 28.6091 4.2374 28.6091 4.12255V0.181184C28.6091 0.0768722 28.6091 0.0768726 28.721 0.0768726H29.2363C29.27 0.0664058 29.3034 0.0664063 29.3481 0.0664063Z" fill="#F2F2F2"/>
<path d="M39.6294 3.83026H40.3462C40.3462 3.8614 40.3462 3.8928 40.3574 3.92415C40.3687 4.14311 40.3574 4.3515 40.3799 4.57045C40.4133 4.8833 40.615 5.09174 40.9286 5.16466C41.164 5.21727 41.4104 5.24835 41.6453 5.26929C42.06 5.3005 42.4743 5.29024 42.8887 5.2068C42.945 5.19632 43.0009 5.17513 43.068 5.15419C43.3703 5.06061 43.5495 4.87308 43.572 4.58092C43.5945 4.37245 43.5945 4.17448 43.5833 3.96577C43.5608 3.6634 43.3703 3.45467 43.0342 3.37155C42.7542 3.309 42.4631 3.26713 42.1718 3.22557C41.6792 3.15261 41.1753 3.07964 40.6824 2.99596C40.4582 2.95435 40.2455 2.87092 40.0551 2.73541C39.7974 2.54787 39.6519 2.29758 39.6294 2.00542C39.607 1.71352 39.6182 1.42167 39.6407 1.14018C39.6741 0.660537 39.9545 0.358169 40.4358 0.19131C40.7831 0.0764813 41.1528 0.034917 41.5109 0.0139842C41.9704 -0.00694868 42.441 -0.00694835 42.9 0.0558504C43.1464 0.0869477 43.3816 0.138978 43.6167 0.232874C43.964 0.37885 44.1769 0.618673 44.2665 0.962855C44.3224 1.2132 44.3224 1.46323 44.3224 1.72399H43.5945V1.46323C43.5833 1.35887 43.5833 1.25476 43.5608 1.15065C43.5161 0.931508 43.3703 0.775067 43.1464 0.691636C42.8441 0.57711 42.5303 0.556176 42.2167 0.545709C41.8136 0.535242 41.4213 0.535242 41.0294 0.62914C40.9622 0.639607 40.9063 0.660537 40.8389 0.681169C40.5703 0.775067 40.4133 0.952392 40.3911 1.22341C40.3687 1.45302 40.3574 1.68242 40.3799 1.91153C40.402 2.17229 40.5816 2.33919 40.8389 2.40169C41.0853 2.46419 41.3432 2.49558 41.6006 2.5374C42.1605 2.62058 42.7095 2.70401 43.2694 2.79796C43.4936 2.83977 43.6951 2.923 43.8856 3.04824C44.1544 3.23604 44.3 3.48607 44.3337 3.78869C44.3671 4.12241 44.3671 4.45588 44.3112 4.78964C44.244 5.21727 43.9752 5.48824 43.5495 5.63397C43.2248 5.74903 42.8887 5.79058 42.5415 5.81152C42.0712 5.84261 41.6006 5.83247 41.1193 5.78015C40.8502 5.74903 40.5816 5.69671 40.3349 5.59233C39.9767 5.43592 39.7525 5.17513 39.6853 4.81054C39.607 4.47662 39.6407 4.15354 39.6294 3.83026Z" fill="#F2F2F2"/>
<path d="M37.737 2.94427V3.03817H34.4887V1.44269C34.4887 1.33858 34.4999 1.24473 34.5224 1.15079C34.5786 0.900498 34.7466 0.744103 35.0039 0.660676C35.2506 0.577245 35.508 0.556563 35.7659 0.546096C36.1912 0.525166 36.6169 0.525166 37.0313 0.61906C37.0987 0.629527 37.1659 0.650209 37.2217 0.671143C37.5244 0.775455 37.6811 0.973511 37.7033 1.26536C37.7145 1.38019 37.7258 1.49472 37.7258 1.6096C37.7483 2.04743 37.737 2.49598 37.737 2.94427ZM38.4762 5.74919V5.64481V1.54705C38.4762 1.42206 38.465 1.2863 38.4538 1.1613C38.4091 0.681606 38.1515 0.347839 37.6699 0.191447C37.5578 0.149883 37.4344 0.118484 37.3114 0.0975505C36.7849 -0.00656011 36.2584 -0.00656023 35.721 0.0143726C35.3625 0.024839 35.0152 0.0664028 34.6794 0.160299C34.2535 0.285343 33.9287 0.514699 33.8391 0.942362C33.8057 1.10922 33.7832 1.27583 33.7832 1.44269V5.66575V5.74919H34.5112V3.65332H37.7595V5.74919H38.4762Z" fill="#F2F2F2"/>
<path d="M23.4902 4.26838C23.4902 4.37243 23.479 4.47661 23.4678 4.58116C23.423 4.84166 23.2775 5.02919 23.0086 5.12335C22.7623 5.21721 22.5046 5.23787 22.247 5.25881C21.8213 5.27979 21.3957 5.27979 20.9701 5.20678H20.9479C20.4326 5.1024 20.2084 4.8626 20.2084 4.36196C20.1972 3.42356 20.2084 2.4851 20.2084 1.54664C20.2084 1.43206 20.2197 1.3277 20.2422 1.21312C20.2868 0.952372 20.4436 0.775295 20.7125 0.681149C20.9701 0.587557 21.2389 0.556155 21.5079 0.545688C21.9335 0.525006 22.3591 0.525006 22.7735 0.608185C22.8181 0.618652 22.8629 0.629119 22.9078 0.639586C23.2888 0.743947 23.4678 0.962889 23.4902 1.3277C23.5014 1.49461 23.5014 1.65101 23.5014 1.81786V2.90225C23.4902 3.36106 23.4902 3.80936 23.4902 4.26838ZM24.2181 2.90225H24.2069C24.2069 2.34964 24.2181 1.79693 24.2069 1.24427C24.1959 0.78551 23.983 0.431112 23.5014 0.243319C23.3781 0.191289 23.2438 0.149424 23.1092 0.118326C22.5605 0.00349739 22.0006 -0.00671744 21.4404 0.0139135C21.0485 0.0348464 20.6678 0.0659939 20.2981 0.191289C19.9061 0.326749 19.626 0.566622 19.5364 0.952372C19.503 1.11928 19.4805 1.28614 19.4805 1.46321V4.2265C19.4805 4.36196 19.4805 4.49747 19.503 4.64369C19.5476 5.12335 19.794 5.46728 20.2868 5.62365C20.4885 5.68652 20.7012 5.73854 20.9142 5.76967C21.4519 5.8426 21.9894 5.8426 22.5268 5.80104C22.8406 5.7801 23.1542 5.72807 23.4453 5.62365C23.8599 5.47776 24.1288 5.20678 24.1959 4.78963C24.2181 4.63322 24.2406 4.47661 24.2406 4.30994C24.2294 3.83024 24.2181 3.36106 24.2181 2.90225Z" fill="#F2F2F2"/>
<path d="M49.4645 2.79829C49.3862 3.23638 49.1168 3.476 48.6469 3.54896C48.5233 3.56984 48.4002 3.56984 48.2886 3.58031H46.3733H46.2613V0.608598H46.3506H48.2099C48.4002 0.608598 48.5909 0.629482 48.7812 0.660879C49.1955 0.754575 49.4534 1.01533 49.4867 1.41154C49.5094 1.7348 49.5094 2.0581 49.5094 2.37093C49.4978 2.51661 49.4978 2.66278 49.4645 2.79829ZM50.2034 1.28655C50.1701 0.744058 49.8451 0.368977 49.2742 0.191651C48.9603 0.0977556 48.6358 0.0664062 48.2992 0.0664062H45.6113H45.5215V5.74912H46.2497V4.12255H46.3618H48.1988C48.49 4.12255 48.7923 4.10162 49.0835 4.03907C49.7557 3.89314 50.1589 3.48647 50.2034 2.86079C50.2372 2.32907 50.2372 1.80781 50.2034 1.28655Z" fill="#F2F2F2"/>
</g>
<defs>
<clipPath id="clip0_3921_243">
<rect width="142" height="31" fill="white"/>
</clipPath>
</defs>
</svg>
