<svg width="3192" height="748" viewBox="0 0 3192 748" fill="none" xmlns="http://www.w3.org/2000/svg">
<path d="M322.071 404.623C322.071 394.559 320.46 384.848 317.23 375.608C314.019 366.325 309.666 358.242 304.21 351.348C298.764 344.454 292.323 339.02 284.867 335.046C277.43 331.072 269.251 329.09 260.321 329.09H102.643V477.757H255.119C264.527 477.757 273.34 475.88 281.548 472.198C289.717 468.465 296.764 463.291 302.737 456.658C308.69 450.056 313.385 442.233 316.869 433.212C320.314 424.221 322.071 414.678 322.071 404.623ZM102.643 100.155V242.439H239.503C256.846 242.439 271.613 236.108 283.754 223.363C295.915 210.649 301.975 193.148 301.975 170.901C301.975 149.196 296.403 131.956 285.267 119.242C274.092 106.528 260.321 100.155 243.983 100.155H102.643ZM425.465 425.285C425.465 449.128 421.015 470.05 412.085 488.073C403.154 506.095 390.867 521.198 375.251 533.39C359.636 545.583 341.532 554.824 320.948 561.207C300.365 567.569 278.425 570.75 255.119 570.75H0V6.35974H282.661C300.97 6.35974 317.62 10.5942 332.484 19.0737C347.378 27.574 359.997 38.5358 370.411 52.0633C380.844 65.5804 388.895 80.9436 394.585 98.1841C400.275 115.393 403.154 132.759 403.154 150.229C403.154 177.785 396.703 203.63 383.811 227.733C370.918 251.857 352.062 269.745 327.273 281.384C357.508 290.928 381.449 308.043 399.065 332.657C416.652 357.303 425.465 388.196 425.465 425.285Z" fill="#FD0E35"/>
<path d="M568.307 578.719C528.146 578.719 497.666 564.941 476.809 537.375C455.992 509.83 445.578 468.997 445.578 414.96V154.224H545.245V391.899C545.245 456.032 566.823 488.094 609.991 488.094C629.325 488.094 648.034 481.878 666.129 469.424C684.233 456.971 698.97 438.02 710.379 412.561V154.224H810.056V448.335C810.056 459.453 811.92 467.422 815.648 472.209C819.376 476.955 825.427 479.614 833.869 480.136V570.761C823.944 572.857 815.648 574.182 808.963 574.735C802.238 575.256 796.187 575.517 790.741 575.517C772.881 575.517 758.358 571.147 747.213 562.417C736.048 553.687 729.479 541.609 727.508 526.257L725.273 492.881C707.9 521.469 685.59 542.944 658.321 557.233C631.052 571.564 601.051 578.719 568.307 578.719Z" fill="#FD0E35"/>
<path d="M1059.77 488.078C1070.67 488.078 1081.08 486.232 1091.01 482.519C1100.93 478.827 1110.1 473.778 1118.55 467.416C1126.96 461.064 1134.41 453.628 1140.86 445.159C1147.3 436.68 1152.27 427.658 1155.72 418.114V318.749C1146.82 294.396 1132.78 274.798 1113.71 259.946C1094.61 245.104 1074.66 237.699 1053.84 237.699C1038.43 237.699 1024.57 241.245 1012.17 248.4C999.781 255.576 989.094 265.129 980.203 277.03C971.273 288.962 964.431 302.614 959.737 317.977C955.023 333.341 952.661 349.246 952.661 365.652C952.661 382.632 955.384 398.517 960.859 413.358C966.305 428.21 973.879 441.175 983.531 452.303C993.213 463.432 1004.48 472.204 1017.37 478.534C1030.26 484.907 1044.39 488.078 1059.77 488.078ZM1026.3 573.144C1000.03 573.144 976.202 567.574 954.896 556.456C933.561 545.327 915.096 530.089 899.48 510.752C883.865 491.405 871.811 468.991 863.399 443.563C854.956 418.114 850.75 391.101 850.75 362.482C850.75 332.277 855.23 304.2 864.16 278.219C873.09 252.249 885.465 229.48 901.325 209.841C917.214 190.274 936.314 174.88 958.624 163.751C980.925 152.623 1005.47 147.064 1032.26 147.064C1062.5 147.064 1089.04 154.344 1111.83 168.924C1134.65 183.516 1153.51 202.988 1168.37 227.342V154.208H1255.42V550.886C1255.42 581.623 1249.93 609.168 1239.04 633.564C1228.12 657.917 1213.13 678.589 1194.04 695.538C1174.94 712.518 1152.11 725.492 1125.6 734.514C1099.06 743.505 1070.18 748 1038.95 748C996.307 748 960.469 740.459 931.473 725.357C902.447 710.254 877.54 688.904 856.713 661.38L911.007 604.934C925.871 624.542 944.609 639.905 967.154 651.034C989.738 662.152 1013.64 667.721 1038.95 667.721C1054.32 667.721 1069.07 665.458 1083.2 660.953C1097.33 656.468 1109.86 649.448 1120.76 639.905C1131.68 630.362 1140.22 618.169 1146.42 603.359C1152.63 588.507 1155.72 571.005 1155.72 550.886V498.424C1142.82 522.256 1124.73 540.665 1101.42 553.671C1078.11 566.635 1053.08 573.144 1026.3 573.144Z" fill="#FD0E35"/>
<path d="M1794.82 0.0102539V570.961H1742.89V303.988H1426.11V570.961H1373.42V0.0102539H1426.11V254.123H1742.89V0.0102539H1794.82Z" fill="#232323"/>
<path d="M2179.89 339.37C2178.39 316.852 2173.49 296.347 2165.22 277.855C2156.95 259.363 2146.42 243.426 2133.62 230.013C2120.82 216.601 2106.04 206.16 2089.23 198.63C2072.41 191.141 2054.47 187.376 2035.42 187.376C2016.35 187.376 1998.3 191.141 1981.24 198.63C1964.18 206.16 1949.26 216.601 1936.47 230.013C1923.67 243.426 1913.38 259.499 1905.6 278.251C1897.83 297.025 1893.2 317.384 1891.7 339.37H2179.89ZM2035.42 579.027C2006.84 579.027 1980.62 573.26 1956.81 561.703C1932.95 550.189 1912.24 534.388 1894.71 514.268C1877.13 494.17 1863.48 471.005 1853.71 444.733C1843.91 418.46 1839.01 390.32 1839.01 360.272C1839.01 330.797 1843.91 303.054 1853.71 277.031C1863.48 251.05 1877.04 228.282 1894.34 208.716C1911.64 189.149 1932.34 173.598 1956.41 162.052C1980.49 150.538 2006.55 144.781 2034.66 144.781C2063.27 144.781 2089.47 150.538 2113.29 162.052C2137.11 173.598 2157.56 189.274 2174.62 209.101C2191.68 228.939 2204.96 251.707 2214.52 277.459C2224.04 303.179 2228.82 330.536 2228.82 359.489V372.349C2228.82 376.636 2228.54 379.577 2216.34 381.184H1880.73C1893.97 403.702 1898.83 424.478 1907.14 443.512C1915.4 462.536 1926.05 479.026 1939.1 492.971C1952.14 506.895 1967.06 517.762 1983.86 525.522C2000.68 533.313 2018.63 537.204 2037.7 537.204C2050.22 537.204 2062.77 535.337 2075.29 531.572C2087.84 527.806 2099.39 522.706 2109.93 516.292C2120.46 509.846 2129.98 501.961 2138.52 492.564C2147.03 483.177 2153.55 472.872 2158.09 461.619L2202.48 474.468C2196.45 490.009 2187.91 504.089 2176.88 516.688C2165.86 529.277 2153.07 540.28 2138.52 549.667C2123.95 559.054 2107.91 566.292 2090.36 571.361C2072.78 576.462 2054.47 579.027 2035.42 579.027Z" fill="#232323"/>
<path d="M2767.45 579.027C2736.82 579.027 2706.97 573.656 2677.88 562.924C2648.8 552.223 2623.71 536.672 2602.65 516.292L2625.99 479.287C2648.03 498.592 2670.47 513.09 2693.31 522.717C2716.13 532.354 2740.59 537.204 2766.68 537.204C2798.28 537.204 2823.5 530.362 2842.31 516.688C2861.14 503.015 2870.54 483.615 2870.54 458.385C2870.54 446.6 2868.03 436.816 2863 429.025C2857.98 421.276 2850.58 414.434 2840.81 408.541C2831.04 402.659 2818.73 397.423 2803.94 392.834C2789.12 388.297 2771.94 383.614 2752.38 378.764C2729.82 372.881 2710.25 366.989 2693.68 361.096C2677.15 355.213 2663.47 348.496 2652.68 340.977C2641.88 333.488 2633.88 324.226 2628.61 313.233C2623.35 302.271 2620.72 288.462 2620.72 271.837C2620.72 250.925 2624.57 232.444 2632.35 216.34C2640.13 200.247 2650.66 186.99 2663.98 176.519C2677.28 166.078 2692.82 158.162 2710.61 152.801C2728.44 147.461 2747.35 144.781 2767.45 144.781C2797.54 144.781 2824.89 149.985 2849.47 160.457C2874.03 170.897 2893.86 184.696 2908.9 201.874L2884.06 234.039C2869.53 217.946 2851.83 205.868 2831.04 197.858C2810.19 189.806 2788.51 185.78 2765.94 185.78C2752.38 185.78 2739.85 187.251 2728.31 190.203C2716.77 193.175 2706.61 197.858 2697.85 204.262C2689.06 210.718 2682.15 218.895 2677.15 228.804C2672.12 238.722 2669.62 250.404 2669.62 263.785C2669.62 275.039 2671.36 284.176 2674.88 291.143C2678.38 298.11 2684.17 304.138 2692.18 309.238C2700.2 314.307 2710.37 318.855 2722.68 322.881C2734.95 326.907 2749.87 331.068 2767.45 335.344C2792.52 341.79 2814.59 348.204 2833.67 354.65C2852.72 361.096 2868.63 368.595 2881.44 377.168C2894.23 385.741 2903.88 396.213 2910.4 408.541C2916.92 420.88 2920.19 435.867 2920.19 453.577C2920.19 492.178 2906.38 522.717 2878.8 545.256C2851.21 567.763 2814.11 579.027 2767.45 579.027Z" fill="#232323"/>
<path d="M3191.83 550.866C3188.83 552.461 3184.43 554.589 3178.67 557.27C3172.92 559.96 3166.27 562.641 3158.73 565.332C3151.2 568.012 3142.66 570.432 3133.14 572.56C3123.61 574.677 3113.57 575.762 3103.04 575.762C3092.01 575.762 3081.48 574.156 3071.44 570.954C3061.41 567.741 3052.64 562.777 3045.11 556.07C3037.57 549.385 3031.58 540.947 3027.04 530.736C3022.54 520.567 3020.28 508.781 3020.28 495.368V195.416H2966.08V151.997H3020.28V10.4743H3071.44V151.997H3161.73V195.416H3071.44V480.089C3072.45 495.629 3077.57 507.019 3086.87 514.246C3096.15 521.516 3106.81 525.104 3118.84 525.104C3133.38 525.104 3146.18 522.59 3157.24 517.49C3168.25 512.39 3175.3 508.781 3178.3 506.622L3191.83 550.866Z" fill="#232323"/>
<path d="M2327.61 0.000518799V47.6441H2409.79V99.0319H2456.12V137.33H2498.95V182.168H2540.04V274.66H2584.62V0.000518799H2327.61Z" fill="#FD0E35"/>
<path d="M2417.79 155.542L2407.84 144.81C2320.03 213.793 2264.67 336.302 2264.67 472.411C2264.67 579.495 2300.63 676.43 2358.72 746.508L2390.22 711.86C2333.31 644.379 2297.88 549.926 2297.88 445.315C2297.88 326.268 2346.58 223.451 2417.79 155.542Z" fill="#232323"/>
<path d="M2327.61 417.284C2327.61 317.867 2366.97 228.733 2429.27 167.917L2420.38 158.321C2348.67 224.499 2304.88 330.664 2304.88 447.166C2304.88 548.398 2339.77 639.878 2395.94 705.555L2430.32 667.726C2367.42 606.867 2327.61 517.275 2327.61 417.284Z" fill="#232323"/>
<path d="M2364.61 389.12C2364.61 307.82 2394.5 236.24 2439.69 179.209L2431.83 170.719C2373.06 230.66 2338.32 318.479 2338.32 413.557C2338.32 511.076 2377.04 598.625 2438.48 658.742L2463.55 631.166C2402.82 571.57 2364.61 485.221 2364.61 389.12Z" fill="#232323"/>
<path d="M2375.7 389.116C2375.7 481.973 2411.62 565.693 2469.15 625.008L2501.65 589.244C2439.88 532.954 2400.93 450.996 2400.93 359.683C2400.93 297.26 2419.24 239.291 2450.48 190.824L2443.52 183.304C2401.18 239.396 2375.7 310.986 2375.7 389.116Z" fill="#232323"/>
</svg>
