<svg width="13" height="16" viewBox="0 0 13 16" fill="none" xmlns="http://www.w3.org/2000/svg">
<path fill-rule="evenodd" clip-rule="evenodd" d="M1.30298 0.0607911C0.971458 0.0607911 0.653515 0.192487 0.419095 0.426908C0.184675 0.661328 0.0529785 0.979271 0.0529785 1.31079V13.8108C0.0529785 14.1423 0.184675 14.4603 0.419095 14.6947C0.653515 14.9291 0.971458 15.0608 1.30298 15.0608H8.17798C9.12839 15.0609 10.053 14.7514 10.8119 14.1793C11.5708 13.6072 12.1228 12.8035 12.3843 11.8898C12.6459 10.976 12.6028 10.002 12.2615 9.11497C11.9203 8.22793 11.2995 7.47614 10.493 6.97329C10.9589 6.31885 11.2357 5.54874 11.2929 4.74741C11.3501 3.94607 11.1856 3.14446 10.8174 2.43045C10.4491 1.71644 9.89141 1.1176 9.20534 0.69961C8.51927 0.281615 7.73135 0.0605978 6.92798 0.0607911H1.30298ZM6.92798 6.31079C7.17421 6.31079 7.41802 6.26229 7.64551 6.16807C7.87299 6.07384 8.07969 5.93573 8.2538 5.76162C8.42791 5.58751 8.56602 5.38081 8.66025 5.15332C8.75448 4.92584 8.80298 4.68202 8.80298 4.43579C8.80298 4.18956 8.75448 3.94574 8.66025 3.71826C8.56602 3.49077 8.42791 3.28408 8.2538 3.10997C8.07969 2.93586 7.87299 2.79774 7.64551 2.70352C7.41802 2.60929 7.17421 2.56079 6.92798 2.56079H2.55298V6.31079H6.92798ZM2.55298 8.81079V12.5608H8.17798C8.67526 12.5608 9.15217 12.3632 9.5038 12.0116C9.85543 11.66 10.053 11.1831 10.053 10.6858C10.053 10.1885 9.85543 9.7116 9.5038 9.35997C9.15217 9.00834 8.67526 8.81079 8.17798 8.81079H2.55298Z" fill="#DC4654"/>
</svg>
