<svg width="16" height="16" viewBox="0 0 16 16" fill="none" xmlns="http://www.w3.org/2000/svg">
<path d="M9.94872 1.86978C10.1979 1.62055 10.4938 1.42286 10.8194 1.28798C11.1451 1.1531 11.4941 1.08368 11.8465 1.08368C12.199 1.08368 12.548 1.1531 12.8736 1.28798C13.1992 1.42286 13.4951 1.62055 13.7443 1.86978C13.9935 2.119 14.1912 2.41487 14.3261 2.7405C14.461 3.06612 14.5304 3.41512 14.5304 3.76758C14.5304 4.12003 14.461 4.46903 14.3261 4.79466C14.1912 5.12028 13.9935 5.41616 13.7443 5.66538L11.2714 8.13828C11.0031 8.40671 10.6808 8.61516 10.3259 8.74986C9.97107 8.88456 9.59167 8.94245 9.21278 8.9197C8.83389 8.89696 8.46414 8.79409 8.12794 8.61791C7.79174 8.44172 7.49674 8.19621 7.26241 7.8976C7.17851 7.79092 7.05566 7.72193 6.9209 7.70582C6.78613 7.68971 6.65048 7.72779 6.54379 7.81169C6.43711 7.8956 6.36812 8.01845 6.35201 8.15321C6.3359 8.28798 6.37398 8.42363 6.45789 8.53032C6.78158 8.94256 7.18904 9.28146 7.65335 9.52464C8.11767 9.76782 8.62828 9.90975 9.15149 9.94107C9.67469 9.97238 10.1986 9.89237 10.6886 9.70631C11.1786 9.52024 11.6236 9.23236 11.9941 8.86167L14.4677 6.38809C14.8119 6.04391 15.0849 5.63532 15.2712 5.18563C15.4574 4.73594 15.5533 4.25397 15.5533 3.76724C15.5533 3.2805 15.4574 2.79853 15.2712 2.34884C15.0849 1.89915 14.8119 1.49056 14.4677 1.14638C14.1235 0.802209 13.7149 0.529194 13.2653 0.342927C12.8156 0.156661 12.3336 0.060791 11.8469 0.060791C11.3601 0.060791 10.8782 0.156661 10.4285 0.342927C9.97878 0.529194 9.57018 0.802209 9.22601 1.14638L7.1806 3.19179C7.0874 3.28819 7.0358 3.41734 7.0369 3.55141C7.038 3.68549 7.09172 3.81377 7.18649 3.90862C7.28125 4.00348 7.40948 4.05732 7.54356 4.05854C7.67763 4.05977 7.80682 4.00829 7.90331 3.91519L9.94872 1.86978Z" fill="#DC4654"/>
<path d="M4.83511 6.98336C5.10347 6.71493 5.42573 6.50648 5.78059 6.37178C6.13546 6.23708 6.51486 6.17919 6.89375 6.20194C7.27264 6.22468 7.64239 6.32755 7.97859 6.50373C8.31479 6.67992 8.60979 6.92543 8.84411 7.22404C8.88566 7.27686 8.9372 7.32099 8.9958 7.3539C9.0544 7.3868 9.1189 7.40785 9.18563 7.41582C9.25236 7.4238 9.32001 7.41856 9.38472 7.40039C9.44942 7.38222 9.50991 7.35149 9.56274 7.30994C9.61556 7.2684 9.65969 7.21686 9.69259 7.15826C9.7255 7.09966 9.74654 7.03516 9.75452 6.96843C9.7625 6.9017 9.75725 6.83405 9.73909 6.76934C9.72092 6.70464 9.69019 6.64415 9.64864 6.59132C9.32494 6.17908 8.91749 5.84018 8.45318 5.597C7.98886 5.35382 7.47825 5.21189 6.95504 5.18057C6.43183 5.14926 5.90794 5.22927 5.41793 5.41533C4.92793 5.6014 4.48296 5.88928 4.1124 6.25997L1.63882 8.73355C1.29464 9.07773 1.02163 9.48632 0.835359 9.93601C0.649093 10.3857 0.553223 10.8677 0.553223 11.3544C0.553223 11.8411 0.649093 12.3231 0.835359 12.7728C1.02163 13.2225 1.29464 13.6311 1.63882 13.9753C1.98299 14.3194 2.39159 14.5924 2.84127 14.7787C3.29096 14.965 3.77293 15.0608 4.25967 15.0608C4.74641 15.0608 5.22838 14.965 5.67806 14.7787C6.12775 14.5924 6.53635 14.3194 6.88052 13.9753L8.92593 11.9298C8.97617 11.883 9.01647 11.8266 9.04442 11.7639C9.07236 11.7011 9.08739 11.6334 9.0886 11.5648C9.08982 11.4961 9.07718 11.4279 9.05147 11.3642C9.02575 11.3005 8.98747 11.2427 8.93891 11.1942C8.89035 11.1456 8.83251 11.1073 8.76884 11.0816C8.70517 11.0559 8.63697 11.0433 8.56831 11.0445C8.49965 11.0457 8.43194 11.0607 8.36921 11.0886C8.30649 11.1166 8.25003 11.1569 8.20322 11.2071L6.15781 13.2525C5.90854 13.5018 5.61263 13.6995 5.28696 13.8343C4.96129 13.9692 4.61225 14.0386 4.25977 14.0385C3.54789 14.0385 2.8652 13.7556 2.36187 13.2522C2.11265 13.0029 1.91496 12.707 1.7801 12.3814C1.64524 12.0557 1.57584 11.7066 1.57587 11.3542C1.57594 10.6423 1.85879 9.95959 2.36221 9.45626L4.83511 6.98336Z" fill="#DC4654"/>
</svg>
