<svg width="20" height="16" viewBox="0 0 20 16" fill="none" xmlns="http://www.w3.org/2000/svg">
<path fill-rule="evenodd" clip-rule="evenodd" d="M1.62465 2.20365C1.90881 2.20365 2.18133 2.09077 2.38227 1.88983C2.5832 1.6889 2.69608 1.41638 2.69608 1.13222C2.69608 0.848059 2.5832 0.575537 2.38227 0.374605C2.18133 0.173674 1.90881 0.060791 1.62465 0.060791C1.34049 0.060791 1.06797 0.173674 0.867037 0.374605C0.666105 0.575537 0.553223 0.848059 0.553223 1.13222C0.553223 1.41638 0.666105 1.6889 0.867037 1.88983C1.06797 2.09077 1.34049 2.20365 1.62465 2.20365ZM6.71394 0.596505C6.50082 0.596505 6.29643 0.681167 6.14573 0.831866C5.99503 0.982565 5.91037 1.18696 5.91037 1.40008C5.91037 1.6132 5.99503 1.81759 6.14573 1.96829C6.29643 2.11899 6.50082 2.20365 6.71394 2.20365H19.0354C19.2485 2.20365 19.4529 2.11899 19.6036 1.96829C19.7543 1.81759 19.8389 1.6132 19.8389 1.40008C19.8389 1.18696 19.7543 0.982565 19.6036 0.831866C19.4529 0.681167 19.2485 0.596505 19.0354 0.596505H6.71394ZM6.71394 7.02508C6.50082 7.02508 6.29643 7.10974 6.14573 7.26044C5.99503 7.41114 5.91037 7.61553 5.91037 7.82865C5.91037 8.04177 5.99503 8.24616 6.14573 8.39686C6.29643 8.54756 6.50082 8.63222 6.71394 8.63222H19.0354C19.2485 8.63222 19.4529 8.54756 19.6036 8.39686C19.7543 8.24616 19.8389 8.04177 19.8389 7.82865C19.8389 7.61553 19.7543 7.41114 19.6036 7.26044C19.4529 7.10974 19.2485 7.02508 19.0354 7.02508H6.71394ZM6.71394 13.4536C6.50082 13.4536 6.29643 13.5383 6.14573 13.689C5.99503 13.8397 5.91037 14.0441 5.91037 14.2572C5.91037 14.4703 5.99503 14.6747 6.14573 14.8254C6.29643 14.9761 6.50082 15.0608 6.71394 15.0608H19.0354C19.2485 15.0608 19.4529 14.9761 19.6036 14.8254C19.7543 14.6747 19.8389 14.4703 19.8389 14.2572C19.8389 14.0441 19.7543 13.8397 19.6036 13.689C19.4529 13.5383 19.2485 13.4536 19.0354 13.4536H6.71394ZM2.69608 7.56079C2.69608 7.84495 2.5832 8.11747 2.38227 8.31841C2.18133 8.51934 1.90881 8.63222 1.62465 8.63222C1.34049 8.63222 1.06797 8.51934 0.867037 8.31841C0.666105 8.11747 0.553223 7.84495 0.553223 7.56079C0.553223 7.27663 0.666105 7.00411 0.867037 6.80318C1.06797 6.60224 1.34049 6.48936 1.62465 6.48936C1.90881 6.48936 2.18133 6.60224 2.38227 6.80318C2.5832 7.00411 2.69608 7.27663 2.69608 7.56079ZM1.62465 15.0608C1.90881 15.0608 2.18133 14.9479 2.38227 14.747C2.5832 14.546 2.69608 14.2735 2.69608 13.9894C2.69608 13.7052 2.5832 13.4327 2.38227 13.2317C2.18133 13.0308 1.90881 12.9179 1.62465 12.9179C1.34049 12.9179 1.06797 13.0308 0.867037 13.2317C0.666105 13.4327 0.553223 13.7052 0.553223 13.9894C0.553223 14.2735 0.666105 14.546 0.867037 14.747C1.06797 14.9479 1.34049 15.0608 1.62465 15.0608Z" fill="#DC4654"/>
</svg>
