<svg width="16" height="16" viewBox="0 0 16 16" fill="none" xmlns="http://www.w3.org/2000/svg">
<path fill-rule="evenodd" clip-rule="evenodd" d="M14.0949 1.31079H2.01156C1.9563 1.31079 1.90331 1.33274 1.86424 1.37181C1.82517 1.41088 1.80322 1.46387 1.80322 1.51912V13.6025C1.80322 13.7175 1.89656 13.8108 2.01156 13.8108H2.16989L10.3557 5.62496C10.4911 5.48952 10.6519 5.38209 10.8289 5.30879C11.0058 5.2355 11.1954 5.19777 11.387 5.19777C11.5785 5.19777 11.7681 5.2355 11.9451 5.30879C12.122 5.38209 12.2828 5.48952 12.4182 5.62496L14.3032 7.50996V1.51912C14.3032 1.46387 14.2813 1.41088 14.2422 1.37181C14.2031 1.33274 14.1501 1.31079 14.0949 1.31079ZM14.3032 9.27746L11.5341 6.50829C11.5147 6.48889 11.4917 6.4735 11.4664 6.46299C11.4411 6.45249 11.414 6.44709 11.3866 6.44709C11.3592 6.44709 11.332 6.45249 11.3067 6.46299C11.2814 6.4735 11.2584 6.48889 11.2391 6.50829L3.93739 13.8108H14.0949C14.1501 13.8108 14.2031 13.7888 14.2422 13.7498C14.2813 13.7107 14.3032 13.6577 14.3032 13.6025V9.27746ZM2.01156 0.060791C1.62478 0.060791 1.25385 0.214436 0.980359 0.487927C0.706868 0.761418 0.553223 1.13235 0.553223 1.51912V13.6025C0.553223 14.4075 1.20656 15.0608 2.01156 15.0608H14.0949C14.4817 15.0608 14.8526 14.9071 15.1261 14.6337C15.3996 14.3602 15.5532 13.9892 15.5532 13.6025V1.51912C15.5532 1.13235 15.3996 0.761418 15.1261 0.487927C14.8526 0.214436 14.4817 0.060791 14.0949 0.060791H2.01156ZM5.13656 5.47746C5.35757 5.47746 5.56953 5.38966 5.72581 5.23338C5.88209 5.0771 5.96989 4.86514 5.96989 4.64412C5.96989 4.42311 5.88209 4.21115 5.72581 4.05487C5.56953 3.89859 5.35757 3.81079 5.13656 3.81079C4.91554 3.81079 4.70358 3.89859 4.5473 4.05487C4.39102 4.21115 4.30322 4.42311 4.30322 4.64412C4.30322 4.86514 4.39102 5.0771 4.5473 5.23338C4.70358 5.38966 4.91554 5.47746 5.13656 5.47746ZM5.13656 6.72746C5.68909 6.72746 6.21899 6.50796 6.60969 6.11726C7.0004 5.72656 7.21989 5.19666 7.21989 4.64412C7.21989 4.09159 7.0004 3.56169 6.60969 3.17099C6.21899 2.78028 5.68909 2.56079 5.13656 2.56079C4.58402 2.56079 4.05412 2.78028 3.66342 3.17099C3.27272 3.56169 3.05322 4.09159 3.05322 4.64412C3.05322 5.19666 3.27272 5.72656 3.66342 6.11726C4.05412 6.50796 4.58402 6.72746 5.13656 6.72746Z" fill="#DC4654"/>
</svg>
