<svg width="16" height="16" viewBox="0 0 16 16" fill="none" xmlns="http://www.w3.org/2000/svg">
<path fill-rule="evenodd" clip-rule="evenodd" d="M6.17822 0.763916C6.17822 0.577436 6.2523 0.398593 6.38416 0.266731C6.51603 0.13487 6.69487 0.060791 6.88135 0.060791H14.8501C15.0366 0.060791 15.2154 0.13487 15.3473 0.266731C15.4791 0.398593 15.5532 0.577436 15.5532 0.763916C15.5532 0.950396 15.4791 1.12924 15.3473 1.2611C15.2154 1.39296 15.0366 1.46704 14.8501 1.46704H11.5557L6.09197 13.6545H9.2251C9.41158 13.6545 9.59042 13.7286 9.72228 13.8605C9.85414 13.9923 9.92822 14.1712 9.92822 14.3577C9.92822 14.5441 9.85414 14.723 9.72228 14.8549C9.59042 14.9867 9.41158 15.0608 9.2251 15.0608H1.25635C1.06987 15.0608 0.891025 14.9867 0.759163 14.8549C0.627302 14.723 0.553223 14.5441 0.553223 14.3577C0.553223 14.1712 0.627302 13.9923 0.759163 13.8605C0.891025 13.7286 1.06987 13.6545 1.25635 13.6545H4.55072L10.0145 1.46704H6.88135C6.69487 1.46704 6.51603 1.39296 6.38416 1.2611C6.2523 1.12924 6.17822 0.950396 6.17822 0.763916Z" fill="#DC4654"/>
</svg>
