<svg width="16" height="16" viewBox="0 0 16 16" fill="none" xmlns="http://www.w3.org/2000/svg">
<path d="M12.299 5.5208C12.3984 5.41417 12.4524 5.27313 12.4499 5.12741C12.4473 4.98168 12.3883 4.84264 12.2852 4.73958C12.1822 4.63652 12.0431 4.57749 11.8974 4.57492C11.7517 4.57235 11.6106 4.62644 11.504 4.7258L7.0265 9.2033L5.174 7.3508C5.06737 7.25144 4.92633 7.19735 4.7806 7.19992C4.63488 7.20249 4.49584 7.26152 4.39278 7.36458C4.28972 7.46764 4.23069 7.60668 4.22811 7.75241C4.22554 7.89813 4.27964 8.03917 4.379 8.1458L6.629 10.3958C6.73447 10.5011 6.87743 10.5603 7.0265 10.5603C7.17556 10.5603 7.31853 10.5011 7.424 10.3958L12.299 5.5208Z" fill="#DC4654"/>
<path fill-rule="evenodd" clip-rule="evenodd" d="M2.15137 0.060791C1.80327 0.060791 1.46943 0.199072 1.22329 0.445213C0.977148 0.691355 0.838867 1.02519 0.838867 1.37329V13.7483C0.838867 14.4728 1.42687 15.0608 2.15137 15.0608H14.5264C14.8745 15.0608 15.2083 14.9225 15.4544 14.6764C15.7006 14.4302 15.8389 14.0964 15.8389 13.7483V1.37329C15.8389 1.02519 15.7006 0.691355 15.4544 0.445213C15.2083 0.199072 14.8745 0.060791 14.5264 0.060791H2.15137ZM1.96387 1.37329C1.96387 1.32356 1.98362 1.27587 2.01878 1.24071C2.05395 1.20555 2.10164 1.18579 2.15137 1.18579H14.5264C14.5761 1.18579 14.6238 1.20555 14.6589 1.24071C14.6941 1.27587 14.7139 1.32356 14.7139 1.37329V13.7483C14.7139 13.798 14.6941 13.8457 14.6589 13.8809C14.6238 13.916 14.5761 13.9358 14.5264 13.9358H2.15137C2.10164 13.9358 2.05395 13.916 2.01878 13.8809C1.98362 13.8457 1.96387 13.798 1.96387 13.7483V1.37329Z" fill="#DC4654"/>
</svg>
