<svg width="14" height="16" viewBox="0 0 14 16" fill="none" xmlns="http://www.w3.org/2000/svg">
<path fill-rule="evenodd" clip-rule="evenodd" d="M1.54199 0.060791C1.72847 0.060791 1.90732 0.13487 2.03918 0.266731C2.17104 0.398593 2.24512 0.577436 2.24512 0.763916V6.62329H11.6201V0.763916C11.6201 0.577436 11.6942 0.398593 11.8261 0.266731C11.9579 0.13487 12.1368 0.060791 12.3232 0.060791C12.5097 0.060791 12.6886 0.13487 12.8204 0.266731C12.9523 0.398593 13.0264 0.577436 13.0264 0.763916V14.3577C13.0264 14.5441 12.9523 14.723 12.8204 14.8549C12.6886 14.9867 12.5097 15.0608 12.3232 15.0608C12.1368 15.0608 11.9579 14.9867 11.8261 14.8549C11.6942 14.723 11.6201 14.5441 11.6201 14.3577V8.02954H2.24512V14.3577C2.24512 14.5441 2.17104 14.723 2.03918 14.8549C1.90732 14.9867 1.72847 15.0608 1.54199 15.0608C1.35551 15.0608 1.17667 14.9867 1.04481 14.8549C0.912946 14.723 0.838867 14.5441 0.838867 14.3577V0.763916C0.838867 0.577436 0.912946 0.398593 1.04481 0.266731C1.17667 0.13487 1.35551 0.060791 1.54199 0.060791Z" fill="#DC4654"/>
</svg>
