<svg width="18" height="16" viewBox="0 0 18 16" fill="none" xmlns="http://www.w3.org/2000/svg">
<path d="M1.11285 8.04547H6.86901C7.11885 8.12541 7.38867 8.19537 7.66848 8.25533L9.55722 8.68504C11.5659 9.14473 12.3753 9.75433 12.3753 10.8736C12.3753 12.1827 11.0262 13.1421 9.04756 13.1421C7.30872 13.1421 5.9896 12.3526 5.41998 11.0435C5.18014 10.6138 4.92031 10.4139 4.47061 10.4139C3.83104 10.4139 3.4313 10.8136 3.4313 11.4232C3.4313 11.6231 3.46128 11.8329 3.53124 12.0428C4.08087 13.8916 6.21945 15.0608 9.04756 15.0608C12.5152 15.0608 14.7438 13.302 14.7438 10.5938C14.7438 9.51449 14.414 8.68504 13.7144 8.04547H17.0522C17.372 8.04547 17.6119 7.78564 17.6119 7.48584C17.6119 7.17605 17.372 6.92621 17.0522 6.92621H11.5959C11.2461 6.81629 10.8763 6.71635 10.4666 6.62641L8.74776 6.23667C6.80905 5.78697 5.9896 5.21735 5.9896 4.16805C5.9896 2.88891 7.25875 1.98951 9.03757 1.98951C10.6265 1.98951 11.7358 2.68904 12.3054 3.96819C12.5452 4.36792 12.815 4.55779 13.2747 4.55779C13.8943 4.55779 14.2841 4.17805 14.2841 3.58844C14.2841 3.41855 14.2641 3.24867 14.2141 3.08877C13.7344 1.28997 11.6858 0.060791 9.02757 0.060791C5.88966 0.060791 3.62118 1.82961 3.62118 4.36792C3.62118 5.42721 3.97094 6.27665 4.70046 6.92621H1.11285C0.803056 6.92621 0.553223 7.17605 0.553223 7.48584C0.553223 7.78564 0.803056 8.04547 1.11285 8.04547Z" fill="#DC4654"/>
</svg>
