<svg width="26" height="26" viewBox="0 0 26 26" fill="none" xmlns="http://www.w3.org/2000/svg">
<circle cx="13" cy="13" r="13" fill="#DC4654"/>
<path d="M20.0401 18.9582H17.3485V14.7356C17.3485 13.7287 17.3305 12.4325 15.9486 12.4325C14.5467 12.4325 14.3322 13.5295 14.3322 14.6623V18.9579H11.6406V10.2745H14.2245V11.4612H14.2608C14.7869 10.5601 15.7687 10.0198 16.8102 10.0586C19.5382 10.0586 20.0413 11.8561 20.0413 14.1947L20.0401 18.9582Z" fill="white"/>
<path d="M8.60382 9.08763C8.60366 9.08763 8.60357 9.08763 8.60349 9.08763C7.74661 9.08763 7.0415 8.38137 7.0415 7.52298C7.0415 6.66459 7.74661 5.95825 8.60349 5.95825C9.4603 5.95825 10.1653 6.66443 10.1655 7.52265C10.1655 7.52273 10.1655 7.52282 10.1655 7.52298C10.1655 8.3812 9.46054 9.08754 8.60382 9.08763Z" fill="white"/>
<path d="M9.94977 18.9583H7.25537V10.2747H9.94977V18.9583Z" fill="white"/>
</svg>
