<svg width="2265" height="497" viewBox="0 0 2265 497" fill="none" xmlns="http://www.w3.org/2000/svg">
<path d="M228.448 268.568C228.448 261.887 227.306 255.442 225.015 249.309C222.737 243.148 219.65 237.782 215.78 233.207C211.917 228.631 207.348 225.024 202.059 222.386C196.784 219.749 190.983 218.434 184.649 218.434H72.8058V317.109H180.959C187.632 317.109 193.883 315.863 199.705 313.42C205.5 310.941 210.498 307.508 214.735 303.105C218.957 298.723 222.287 293.531 224.759 287.543C227.202 281.575 228.448 275.241 228.448 268.568ZM72.8058 66.4807V160.92H169.883C182.184 160.92 192.658 156.718 201.27 148.258C209.896 139.82 214.195 128.203 214.195 113.437C214.195 99.0312 210.242 87.588 202.343 79.1492C194.417 70.7105 184.649 66.4807 173.06 66.4807H72.8058ZM301.787 282.281C301.787 298.107 298.631 311.994 292.296 323.956C285.962 335.918 277.246 345.942 266.17 354.035C255.094 362.128 242.252 368.261 227.652 372.498C213.052 376.721 197.49 378.832 180.959 378.832H0V4.22507H200.495C213.482 4.22507 225.292 7.03568 235.835 12.6638C246.399 18.3058 255.35 25.5815 262.736 34.5602C270.137 43.532 275.848 53.7292 279.884 65.1723C283.92 76.5948 285.962 88.121 285.962 99.7165C285.962 118.006 281.386 135.161 272.241 151.159C263.096 167.171 249.722 179.044 232.138 186.769C253.585 193.103 270.566 204.464 283.061 220.801C295.536 237.159 301.787 257.664 301.787 282.281Z" fill="white"/>
<path d="M403.1 384.105C374.613 384.105 352.993 374.961 338.199 356.664C323.433 338.381 316.047 311.279 316.047 275.412V102.352H386.741V260.106C386.741 302.674 402.047 323.954 432.666 323.954C446.38 323.954 459.651 319.828 472.486 311.563C485.327 303.297 495.78 290.719 503.873 273.82V102.352H574.574V297.565C574.574 304.945 575.897 310.234 578.541 313.411C581.186 316.561 585.478 318.326 591.466 318.672V378.823C584.425 380.215 578.541 381.094 573.799 381.461C569.029 381.807 564.737 381.98 560.874 381.98C548.206 381.98 537.905 379.08 529.999 373.285C522.08 367.491 517.421 359.475 516.022 349.284L514.437 327.132C502.115 346.107 486.289 360.361 466.947 369.845C447.605 379.357 426.325 384.105 403.1 384.105Z" fill="white"/>
<path d="M751.716 323.953C759.442 323.953 766.828 322.727 773.869 320.263C780.909 317.812 787.416 314.462 793.405 310.239C799.372 306.023 804.654 301.087 809.23 295.466C813.799 289.838 817.322 283.849 819.773 277.515V211.563C813.46 195.398 803.498 182.391 789.971 172.533C776.423 162.682 762.273 157.767 747.507 157.767C736.576 157.767 726.746 160.12 717.947 164.869C709.162 169.632 701.582 175.973 695.276 183.872C688.941 191.792 684.089 200.853 680.759 211.051C677.415 221.248 675.74 231.805 675.74 242.694C675.74 253.964 677.671 264.507 681.555 274.358C685.418 284.216 690.79 292.821 697.636 300.208C704.503 307.594 712.492 313.416 721.637 317.618C730.782 321.848 740.806 323.953 751.716 323.953ZM727.971 380.414C709.336 380.414 692.437 376.717 677.325 369.338C662.192 361.951 649.094 351.837 638.018 339.002C626.942 326.161 618.392 311.284 612.425 294.407C606.437 277.515 603.453 259.585 603.453 240.59C603.453 220.542 606.631 201.906 612.965 184.661C619.299 167.424 628.077 152.312 639.326 139.276C650.597 126.289 664.144 116.071 679.97 108.685C695.788 101.298 713.198 97.6086 732.201 97.6086C753.648 97.6086 772.477 102.441 788.642 112.119C804.827 121.803 818.202 134.728 828.745 150.892V102.351H890.488V365.641C890.488 386.042 886.598 404.325 878.872 420.517C871.125 436.681 860.492 450.402 846.951 461.652C833.404 472.922 817.212 481.534 798.41 487.522C779.58 493.489 759.096 496.473 736.943 496.473C706.698 496.473 681.278 491.468 660.711 481.444C640.123 471.419 622.456 457.249 607.683 438.98L646.194 401.514C656.737 414.529 670.029 424.726 686.02 432.112C702.039 439.492 718.993 443.189 736.943 443.189C747.846 443.189 758.307 441.687 768.331 438.696C778.355 435.719 787.243 431.06 794.976 424.726C802.722 418.392 808.78 410.299 813.176 400.469C817.579 390.611 819.773 378.995 819.773 365.641V330.82C810.621 346.638 797.787 358.857 781.255 367.489C764.724 376.094 746.967 380.414 727.971 380.414Z" fill="white"/>
<path d="M1273.08 0.003479V378.965H1236.24V201.765H1011.55V378.965H974.172V0.003479H1011.55V168.668H1236.24V0.003479H1273.08Z" fill="white"/>
<path d="M1546.23 225.247C1545.17 210.301 1541.69 196.691 1535.82 184.417C1529.96 172.143 1522.49 161.565 1513.41 152.663C1504.33 143.76 1493.85 136.831 1481.92 131.832C1469.99 126.862 1457.27 124.363 1443.76 124.363C1430.23 124.363 1417.42 126.862 1405.32 131.832C1393.22 136.831 1382.64 143.76 1373.57 152.663C1364.49 161.565 1357.19 172.233 1351.67 184.68C1346.16 197.141 1342.88 210.654 1341.81 225.247H1546.23ZM1443.76 384.316C1423.48 384.316 1404.89 380.488 1387.99 372.818C1371.07 365.175 1356.39 354.687 1343.95 341.333C1331.48 327.993 1321.79 312.618 1314.86 295.18C1307.91 277.742 1304.44 259.064 1304.44 239.12C1304.44 219.557 1307.91 201.142 1314.86 183.87C1321.79 166.626 1331.42 151.514 1343.68 138.527C1355.96 125.54 1370.64 115.218 1387.71 107.555C1404.8 99.912 1423.28 96.0906 1443.22 96.0906C1463.51 96.0906 1482.09 99.912 1498.99 107.555C1515.88 115.218 1530.39 125.623 1542.49 138.783C1554.59 151.95 1564.01 167.062 1570.79 184.154C1577.54 201.225 1580.94 219.384 1580.94 238.601V247.137C1580.94 249.982 1580.74 251.934 1572.08 253H1334.03C1343.43 267.946 1346.87 281.736 1352.76 294.37C1358.62 306.997 1366.18 317.942 1375.44 327.197C1384.69 336.439 1395.26 343.653 1407.18 348.803C1419.11 353.974 1431.84 356.556 1445.37 356.556C1454.25 356.556 1463.15 355.317 1472.04 352.818C1480.94 350.319 1489.13 346.934 1496.6 342.676C1504.07 338.398 1510.83 333.165 1516.89 326.927C1522.92 320.697 1527.55 313.857 1530.77 306.388L1562.25 314.917C1557.97 325.231 1551.92 334.577 1544.09 342.94C1536.28 351.295 1527.2 358.599 1516.89 364.829C1506.55 371.059 1495.17 375.864 1482.72 379.228C1470.26 382.613 1457.27 384.316 1443.76 384.316Z" fill="white"/>
<path d="M1962.97 384.309C1941.25 384.309 1920.08 380.743 1899.44 373.62C1878.81 366.517 1861.02 356.196 1846.08 342.669L1862.63 318.107C1878.27 330.921 1894.19 340.543 1910.39 346.933C1926.57 353.33 1943.92 356.549 1962.43 356.549C1984.84 356.549 2002.74 352.007 2016.08 342.932C2029.43 333.856 2036.1 320.98 2036.1 304.234C2036.1 296.411 2034.32 289.918 2030.75 284.747C2027.19 279.603 2021.94 275.062 2015.01 271.15C2008.08 267.246 1999.35 263.771 1988.86 260.725C1978.35 257.714 1966.16 254.605 1952.28 251.386C1936.28 247.482 1922.4 243.571 1910.65 239.659C1898.92 235.755 1889.22 231.297 1881.57 226.305C1873.9 221.335 1868.23 215.188 1864.5 207.891C1860.77 200.615 1858.9 191.45 1858.9 180.415C1858.9 166.535 1861.63 154.268 1867.15 143.579C1872.67 132.898 1880.13 124.099 1889.58 117.149C1899.01 110.219 1910.04 104.965 1922.66 101.406C1935.3 97.8619 1948.72 96.0828 1962.97 96.0828C1984.32 96.0828 2003.72 99.5372 2021.15 106.488C2038.57 113.417 2052.64 122.576 2063.31 133.978L2045.69 155.327C2035.38 144.645 2022.82 136.629 2008.08 131.312C1993.29 125.968 1977.91 123.296 1961.91 123.296C1952.28 123.296 1943.4 124.272 1935.21 126.231C1927.03 128.204 1919.82 131.312 1913.61 135.563C1907.38 139.848 1902.47 145.275 1898.92 151.852C1895.36 158.435 1893.59 166.189 1893.59 175.071C1893.59 182.54 1894.82 188.604 1897.32 193.229C1899.8 197.853 1903.9 201.854 1909.58 205.24C1915.27 208.604 1922.49 211.622 1931.22 214.294C1939.93 216.967 1950.5 219.729 1962.97 222.567C1980.76 226.845 1996.41 231.103 2009.95 235.381C2023.45 239.659 2034.75 244.637 2043.83 250.327C2052.9 256.017 2059.74 262.968 2064.37 271.15C2069 279.34 2071.32 289.288 2071.32 301.043C2071.32 326.663 2061.52 346.933 2041.96 361.893C2022.39 376.832 1996.07 384.309 1962.97 384.309Z" fill="white"/>
<path d="M2264.01 365.632C2261.88 366.691 2258.75 368.103 2254.67 369.882C2250.59 371.668 2245.88 373.448 2240.53 375.234C2235.19 377.013 2229.13 378.619 2222.37 380.031C2215.62 381.436 2208.49 382.156 2201.02 382.156C2193.2 382.156 2185.73 381.09 2178.61 378.965C2171.49 376.833 2165.28 373.538 2159.93 369.086C2154.59 364.649 2150.34 359.048 2147.12 352.271C2143.93 345.521 2142.32 337.699 2142.32 328.796V129.707H2103.88V100.888H2142.32V6.95392H2178.61V100.888H2242.66V129.707H2178.61V318.655C2179.33 328.969 2182.96 336.529 2189.55 341.326C2196.14 346.151 2203.7 348.533 2212.23 348.533C2222.55 348.533 2231.62 346.864 2239.47 343.479C2247.28 340.094 2252.28 337.699 2254.41 336.266L2264.01 365.632Z" fill="white"/>
<path d="M1651 0.00283813V31.6256H1709.29V65.7337H1742.15V91.1538H1772.53V120.914H1801.68V182.305H1833.3V0.00283813H1651Z" fill="white"/>
<path d="M1714.97 103.242L1707.91 96.1189C1645.62 141.905 1606.36 223.219 1606.36 313.56C1606.36 384.635 1631.86 448.975 1673.07 495.488L1695.41 472.491C1655.05 427.701 1629.92 365.01 1629.92 295.575C1629.92 216.56 1664.45 148.316 1714.97 103.242Z" fill="white"/>
<path d="M1651 276.965C1651 210.978 1678.92 151.817 1723.1 111.45L1716.8 105.082C1665.94 149.006 1634.88 219.472 1634.88 296.798C1634.88 363.99 1659.62 424.709 1699.46 468.301L1723.85 443.192C1679.24 402.798 1651 343.333 1651 276.965Z" fill="white"/>
<path d="M1677.24 258.272C1677.24 204.31 1698.45 156.8 1730.5 118.946L1724.93 113.311C1683.24 153.096 1658.6 211.385 1658.6 274.492C1658.6 339.219 1686.06 397.328 1729.64 437.23L1747.43 418.927C1704.35 379.371 1677.24 322.058 1677.24 258.272Z" fill="white"/>
<path d="M1685.11 258.27C1685.11 319.902 1710.59 375.471 1751.4 414.84L1774.45 391.102C1730.64 353.74 1703.01 299.342 1703.01 238.734C1703.01 197.302 1716 158.825 1738.16 126.656L1733.22 121.664C1703.18 158.895 1685.11 206.412 1685.11 258.27Z" fill="white"/>
</svg>
