<svg width="3194" height="750" viewBox="0 0 3194 750" fill="none" xmlns="http://www.w3.org/2000/svg">
<path d="M322.898 405.652C322.898 395.587 321.288 385.877 318.057 376.636C314.846 367.353 310.493 359.27 305.038 352.376C299.592 345.482 293.15 340.048 285.694 336.074C278.257 332.1 270.078 330.119 261.148 330.119H103.47V478.786H255.946C265.355 478.786 274.168 476.908 282.375 473.227C290.544 469.493 297.591 464.32 303.564 457.686C309.517 451.084 314.212 443.262 317.696 434.24C321.141 425.249 322.898 415.706 322.898 405.652ZM103.47 101.184V243.468H240.331C257.674 243.468 272.44 237.137 284.581 224.391C296.742 211.677 302.803 194.176 302.803 171.929C302.803 150.225 297.23 132.984 286.094 120.27C274.919 107.556 261.148 101.184 244.81 101.184H103.47ZM426.292 426.313C426.292 450.156 421.842 471.078 412.912 489.101C403.982 507.124 391.694 522.226 376.079 534.419C360.463 546.611 342.359 555.852 321.775 562.235C301.192 568.597 279.252 571.778 255.946 571.778H0.827148V7.38805H283.488C301.797 7.38805 318.447 11.6226 333.311 20.102C348.205 28.6024 360.824 39.5641 371.238 53.0916C381.671 66.6087 389.723 81.9719 395.413 99.2124C401.102 116.422 403.982 133.787 403.982 151.257C403.982 178.813 397.53 204.658 384.638 228.762C371.745 252.886 352.889 270.773 328.1 282.413C358.335 291.956 382.276 309.071 399.892 333.686C417.479 358.332 426.292 389.225 426.292 426.313Z" fill="white"/>
<path d="M569.134 579.747C528.973 579.747 498.493 565.969 477.636 538.403C456.819 510.858 446.405 470.025 446.405 415.988V155.252H546.072V392.928C546.072 457.061 567.651 489.122 610.818 489.122C630.152 489.122 648.861 482.906 666.956 470.453C685.06 457.999 699.797 439.048 711.207 413.589V155.252H810.883V449.364C810.883 460.482 812.747 468.45 816.475 473.237C820.203 477.983 826.254 480.643 834.697 481.164V571.789C824.771 573.885 816.475 575.21 809.79 575.763C803.065 576.284 797.014 576.545 791.568 576.545C773.708 576.545 759.185 572.175 748.04 563.445C736.875 554.715 730.306 542.638 728.335 527.285L726.1 493.909C708.728 522.498 686.417 543.973 659.148 558.262C631.879 572.592 601.878 579.747 569.134 579.747Z" fill="white"/>
<path d="M1060.6 489.106C1071.49 489.106 1081.91 487.26 1091.83 483.547C1101.76 479.855 1110.93 474.807 1119.37 468.445C1127.79 462.093 1135.23 454.657 1141.69 446.188C1148.13 437.708 1153.09 428.686 1156.55 419.143V319.778C1147.65 295.424 1133.6 275.826 1114.53 260.974C1095.43 246.133 1075.48 238.727 1054.67 238.727C1039.26 238.727 1025.4 242.274 1012.99 249.428C1000.61 256.604 989.921 266.158 981.03 278.058C972.1 289.99 965.258 303.643 960.564 319.006C955.85 334.369 953.488 350.275 953.488 366.681C953.488 383.661 956.211 399.545 961.686 414.387C967.132 429.239 974.706 442.203 984.358 453.332C994.04 464.461 1005.3 473.232 1018.2 479.563C1031.09 485.936 1045.22 489.106 1060.6 489.106ZM1027.13 574.172C1000.85 574.172 977.029 568.603 955.723 557.484C934.388 546.356 915.923 531.118 900.307 511.781C884.692 492.433 872.639 470.02 864.226 444.592C855.784 419.143 851.577 392.13 851.577 363.51C851.577 333.305 856.057 305.228 864.987 279.247C873.917 253.277 886.292 230.509 902.152 210.869C918.041 191.303 937.141 175.909 959.451 164.78C981.752 153.651 1006.3 148.092 1033.09 148.092C1063.32 148.092 1089.87 155.372 1112.66 169.953C1135.48 184.544 1154.33 204.017 1169.2 228.371V155.237H1256.24V551.915C1256.24 582.652 1250.76 610.197 1239.87 634.592C1228.95 658.946 1213.96 679.618 1194.87 696.566C1175.77 713.546 1152.94 726.521 1126.43 735.543C1099.88 744.533 1071.01 749.029 1039.77 749.029C997.134 749.029 961.296 741.488 932.3 726.385C903.274 711.283 878.368 689.933 857.54 662.409L911.834 605.962C926.698 625.57 945.436 640.934 967.981 652.062C990.565 663.18 1014.47 668.75 1039.77 668.75C1055.15 668.75 1069.89 666.487 1084.02 661.981C1098.16 657.496 1110.69 650.477 1121.59 640.934C1132.51 631.39 1141.05 619.198 1147.25 604.387C1153.46 589.535 1156.55 572.034 1156.55 551.915V499.453C1143.65 523.285 1125.55 541.694 1102.25 554.7C1078.94 567.664 1053.91 574.172 1027.13 574.172Z" fill="white"/>
<path d="M2328.44 1.02885V48.6724H2410.61V100.06H2456.94V138.359H2499.78V183.197H2540.87V275.688H2585.45V1.02885H2328.44Z" fill="white"/>
<path d="M2418.62 156.571L2408.66 145.838C2320.86 214.821 2265.5 337.33 2265.5 473.44C2265.5 580.523 2301.45 677.458 2359.54 747.536L2391.05 712.888C2334.14 645.407 2298.71 550.955 2298.71 446.343C2298.71 327.297 2347.4 224.48 2418.62 156.571" fill="white"/>
<path d="M2328.44 418.313C2328.44 318.895 2367.8 229.762 2430.09 168.945L2421.2 159.35C2349.5 225.527 2305.71 331.693 2305.71 448.194C2305.71 549.426 2340.6 640.907 2396.76 706.583L2431.15 668.754C2368.25 607.896 2328.44 518.304 2328.44 418.313Z" fill="white"/>
<path d="M2365.43 390.149C2365.43 308.848 2395.33 237.268 2440.52 180.238L2432.66 171.748C2373.89 231.688 2339.15 319.507 2339.15 414.586C2339.15 512.105 2377.87 599.653 2439.31 659.771L2464.38 632.194C2403.64 572.598 2365.43 486.249 2365.43 390.149Z" fill="white"/>
<path d="M2376.52 390.145C2376.52 483.001 2412.45 566.722 2469.98 626.036L2502.48 590.272C2440.71 533.983 2401.76 452.025 2401.76 360.711C2401.76 298.289 2420.07 240.32 2451.31 191.852L2444.34 184.332C2402.01 240.424 2376.52 312.015 2376.52 390.145Z" fill="white"/>
<path d="M1317.03 569.028V154.483H1367.22V524.497H1559.92V569.028H1317.03ZM1746.98 575.506C1718.91 575.506 1694.29 568.826 1673.1 555.467C1652.05 542.107 1635.58 523.418 1623.71 499.398C1611.97 475.378 1606.1 447.31 1606.1 415.193C1606.1 382.807 1611.97 354.536 1623.71 330.381C1635.58 306.226 1652.05 287.469 1673.1 274.11C1694.29 260.751 1718.91 254.071 1746.98 254.071C1775.05 254.071 1799.61 260.751 1820.66 274.11C1841.85 287.469 1858.31 306.226 1870.05 330.381C1881.92 354.536 1887.86 382.807 1887.86 415.193C1887.86 447.31 1881.92 475.378 1870.05 499.398C1858.31 523.418 1841.85 542.107 1820.66 555.467C1799.61 568.826 1775.05 575.506 1746.98 575.506ZM1746.98 532.594C1768.3 532.594 1785.84 527.128 1799.61 516.198C1813.37 505.268 1823.56 490.896 1830.17 473.084C1836.79 455.271 1840.09 435.974 1840.09 415.193C1840.09 394.412 1836.79 375.047 1830.17 357.1C1823.56 339.153 1813.37 324.646 1799.61 313.581C1785.84 302.516 1768.3 296.983 1746.98 296.983C1725.66 296.983 1708.12 302.516 1694.35 313.581C1680.59 324.646 1670.4 339.153 1663.79 357.1C1657.18 375.047 1653.87 394.412 1653.87 415.193C1653.87 435.974 1657.18 455.271 1663.79 473.084C1670.4 490.896 1680.59 505.268 1694.35 516.198C1708.12 527.128 1725.66 532.594 1746.98 532.594ZM2075.78 692.097C2052.7 692.097 2032.87 689.128 2016.27 683.19C1999.67 677.388 1985.84 669.696 1974.77 660.115C1963.84 650.669 1955.14 640.548 1948.66 629.753L1986.72 603.034C1991.03 608.702 1996.5 615.179 2003.11 622.466C2009.72 629.888 2018.76 636.297 2030.23 641.695C2041.84 647.228 2057.02 649.994 2075.78 649.994C2100.88 649.994 2121.59 643.922 2137.92 631.777C2154.25 619.632 2162.41 600.605 2162.41 574.696V511.543H2158.36C2154.86 517.21 2149.86 524.227 2143.38 532.594C2137.04 540.825 2127.87 548.18 2115.86 554.657C2103.98 560.999 2087.92 564.17 2067.68 564.17C2042.58 564.17 2020.05 558.233 2000.08 546.358C1980.24 534.483 1964.52 517.21 1952.91 494.54C1941.44 471.869 1935.71 444.341 1935.71 411.954C1935.71 380.108 1941.31 352.377 1952.51 328.762C1963.71 305.012 1979.29 286.66 1999.27 273.705C2019.24 260.616 2042.31 254.071 2068.49 254.071C2088.73 254.071 2104.79 257.445 2116.67 264.192C2128.68 270.804 2137.85 278.361 2144.19 286.862C2150.67 295.229 2155.66 302.111 2159.17 307.508H2164.03V258.119H2210.18V577.935C2210.18 604.653 2204.11 626.379 2191.96 643.112C2179.95 659.98 2163.76 672.327 2143.38 680.154C2123.14 688.116 2100.61 692.097 2075.78 692.097ZM2074.16 521.258C2093.32 521.258 2109.51 516.873 2122.74 508.101C2135.96 499.33 2146.02 486.713 2152.9 470.25C2159.78 453.787 2163.22 434.085 2163.22 411.145C2163.22 388.744 2159.85 368.975 2153.1 351.837C2146.35 334.699 2136.37 321.273 2123.14 311.557C2109.92 301.841 2093.59 296.983 2074.16 296.983C2053.92 296.983 2037.05 302.111 2023.56 312.366C2010.2 322.622 2000.14 336.386 1993.4 353.659C1986.78 370.932 1983.48 390.094 1983.48 411.145C1983.48 432.736 1986.85 451.83 1993.6 468.428C2000.48 484.891 2010.6 497.846 2023.96 507.292C2037.45 516.603 2054.19 521.258 2074.16 521.258Z" fill="white"/>
<path d="M2950.83 568.574V154.028H3001.03V524.043H3193.72V568.574H2950.83Z" fill="white"/>
<path d="M1428.33 672.756C1424.44 672.756 1421.1 672.256 1418.3 671.256C1415.51 670.278 1413.18 668.983 1411.32 667.369C1409.47 665.778 1408.01 664.074 1406.92 662.256L1413.33 657.756C1414.05 658.71 1414.97 659.801 1416.09 661.028C1417.2 662.278 1418.72 663.358 1420.66 664.267C1422.61 665.199 1425.17 665.665 1428.33 665.665C1432.55 665.665 1436.04 664.642 1438.79 662.597C1441.54 660.551 1442.92 657.347 1442.92 652.983V642.347H1442.24C1441.65 643.301 1440.8 644.483 1439.71 645.892C1438.65 647.278 1437.1 648.517 1435.08 649.608C1433.08 650.676 1430.37 651.21 1426.96 651.21C1422.74 651.21 1418.94 650.21 1415.58 648.21C1412.24 646.21 1409.59 643.301 1407.63 639.483C1405.7 635.665 1404.74 631.028 1404.74 625.574C1404.74 620.21 1405.68 615.54 1407.57 611.562C1409.45 607.562 1412.08 604.472 1415.44 602.29C1418.8 600.085 1422.69 598.983 1427.1 598.983C1430.51 598.983 1433.21 599.551 1435.21 600.687C1437.24 601.801 1438.78 603.074 1439.85 604.506C1440.94 605.915 1441.78 607.074 1442.37 607.983H1443.19V599.665H1450.96V653.528C1450.96 658.028 1449.94 661.687 1447.9 664.506C1445.87 667.347 1443.15 669.426 1439.71 670.744C1436.3 672.085 1432.51 672.756 1428.33 672.756ZM1428.05 643.983C1431.28 643.983 1434.01 643.244 1436.24 641.767C1438.46 640.29 1440.16 638.165 1441.32 635.392C1442.47 632.619 1443.05 629.301 1443.05 625.437C1443.05 621.665 1442.49 618.335 1441.35 615.449C1440.21 612.562 1438.53 610.301 1436.3 608.665C1434.08 607.028 1431.33 606.21 1428.05 606.21C1424.65 606.21 1421.8 607.074 1419.53 608.801C1417.28 610.528 1415.59 612.847 1414.45 615.756C1413.34 618.665 1412.78 621.892 1412.78 625.437C1412.78 629.074 1413.35 632.29 1414.49 635.085C1415.65 637.858 1417.35 640.04 1419.6 641.631C1421.87 643.199 1424.69 643.983 1428.05 643.983ZM1455.19 652.028V599.665H1463.24V652.028H1455.19ZM1459.28 590.937C1457.71 590.937 1456.36 590.403 1455.22 589.335C1454.11 588.267 1453.55 586.983 1453.55 585.483C1453.55 583.983 1454.11 582.699 1455.22 581.631C1456.36 580.562 1457.71 580.028 1459.28 580.028C1460.85 580.028 1462.19 580.562 1463.3 581.631C1464.44 582.699 1465.01 583.983 1465.01 585.483C1465.01 586.983 1464.44 588.267 1463.3 589.335C1462.19 590.403 1460.85 590.937 1459.28 590.937ZM1475.52 620.528V652.028H1467.47V599.665H1475.24V607.847H1475.93C1477.15 605.187 1479.02 603.051 1481.52 601.437C1484.02 599.801 1487.24 598.983 1491.2 598.983C1494.74 598.983 1497.85 599.71 1500.51 601.165C1503.17 602.597 1505.23 604.778 1506.71 607.71C1508.19 610.619 1508.93 614.301 1508.93 618.756V652.028H1500.88V619.301C1500.88 615.187 1499.81 611.983 1497.68 609.687C1495.54 607.369 1492.61 606.21 1488.88 606.21C1486.31 606.21 1484.02 606.767 1481.99 607.881C1479.99 608.994 1478.42 610.619 1477.26 612.756C1476.1 614.892 1475.52 617.483 1475.52 620.528ZM1534.26 672.756C1530.38 672.756 1527.04 672.256 1524.24 671.256C1521.45 670.278 1519.12 668.983 1517.25 667.369C1515.41 665.778 1513.95 664.074 1512.86 662.256L1519.26 657.756C1519.99 658.71 1520.91 659.801 1522.03 661.028C1523.14 662.278 1524.66 663.358 1526.59 664.267C1528.55 665.199 1531.11 665.665 1534.26 665.665C1538.49 665.665 1541.98 664.642 1544.73 662.597C1547.48 660.551 1548.86 657.347 1548.86 652.983V642.347H1548.17C1547.58 643.301 1546.74 644.483 1545.65 645.892C1544.58 647.278 1543.04 648.517 1541.01 649.608C1539.01 650.676 1536.31 651.21 1532.9 651.21C1528.67 651.21 1524.88 650.21 1521.51 648.21C1518.17 646.21 1515.53 643.301 1513.57 639.483C1511.64 635.665 1510.67 631.028 1510.67 625.574C1510.67 620.21 1511.62 615.54 1513.5 611.562C1515.39 607.562 1518.01 604.472 1521.38 602.29C1524.74 600.085 1528.63 598.983 1533.04 598.983C1536.45 598.983 1539.15 599.551 1541.15 600.687C1543.17 601.801 1544.72 603.074 1545.79 604.506C1546.88 605.915 1547.72 607.074 1548.31 607.983H1549.13V599.665H1556.9V653.528C1556.9 658.028 1555.88 661.687 1553.83 664.506C1551.81 667.347 1549.08 669.426 1545.65 670.744C1542.24 672.085 1538.45 672.756 1534.26 672.756ZM1533.99 643.983C1537.22 643.983 1539.95 643.244 1542.17 641.767C1544.4 640.29 1546.09 638.165 1547.25 635.392C1548.41 632.619 1548.99 629.301 1548.99 625.437C1548.99 621.665 1548.42 618.335 1547.29 615.449C1546.15 612.562 1544.47 610.301 1542.24 608.665C1540.01 607.028 1537.26 606.21 1533.99 606.21C1530.58 606.21 1527.74 607.074 1525.47 608.801C1523.22 610.528 1521.53 612.847 1520.39 615.756C1519.28 618.665 1518.72 621.892 1518.72 625.437C1518.72 629.074 1519.29 632.29 1520.42 635.085C1521.58 637.858 1523.29 640.04 1525.54 641.631C1527.81 643.199 1530.63 643.983 1533.99 643.983Z" fill="white"/>
<path d="M2573.83 569.032C2513.63 569.032 2464.83 520.23 2464.83 460.031C2464.83 399.832 2513.63 351.03 2573.83 351.03C2634.03 351.03 2682.83 399.832 2682.83 460.031C2682.83 520.23 2634.03 569.032 2573.83 569.032ZM2573.83 367.805C2522.89 367.805 2481.6 409.097 2481.6 460.03C2481.6 510.964 2522.89 552.256 2573.83 552.256C2624.76 552.256 2666.05 510.964 2666.05 460.03C2666.05 409.097 2624.76 367.805 2573.83 367.805Z" fill="white"/>
<path d="M2609.23 537.271C2605.74 537.269 2593.04 514.661 2591.33 508.215C2587.76 494.72 2588.53 489.019 2588.74 487.196C2589.4 481.631 2594.8 478.85 2595.12 471.323C2595.22 468.999 2596.4 457.379 2597.33 448.302C2595.02 447.85 2592.72 446.807 2590.67 445.19C2596.82 453.434 2587.77 463.314 2574.63 476.461C2560.67 490.413 2529.71 503.362 2529.71 503.362C2529.71 503.362 2542.66 472.394 2556.61 458.442C2566.86 448.187 2575.13 440.426 2582.18 440.426C2584.17 440.426 2586.07 441.043 2587.88 442.393C2586.26 440.347 2585.22 438.045 2584.76 435.733C2575.69 436.672 2564.07 437.844 2561.74 437.946C2554.22 438.273 2551.44 443.673 2545.87 444.325C2545.23 444.401 2544.11 444.545 2542.35 444.545C2539.08 444.545 2533.61 444.054 2524.85 441.736C2517.84 439.882 2491.72 425.022 2496.34 423.155C2498.7 422.201 2506.21 421.557 2516.09 421.557C2525.6 421.557 2537.32 422.152 2548.76 423.643C2563.02 425.501 2576.1 427.852 2585.01 429.601C2585.16 429.122 2585.33 428.656 2585.54 428.204L2576.43 423.836C2576.43 423.836 2569.15 415.484 2569.93 414.908C2569.96 414.886 2569.99 414.875 2570.04 414.875C2571.18 414.875 2577 421.532 2577.56 422.29C2578 422.434 2580.46 423.257 2583.06 424.121L2580.48 421.867C2580.48 421.867 2576.96 408.801 2577.87 408.493C2577.89 408.489 2577.9 408.487 2577.91 408.487C2578.88 408.487 2582.08 419.849 2582.35 420.665C2582.98 421.216 2585.11 422.044 2587.76 423.576L2584.97 416.393C2584.97 416.393 2586.24 404.543 2587.18 404.543C2587.19 404.543 2587.2 404.544 2587.2 404.546C2588.16 404.736 2587.02 414.429 2586.78 415.636C2587.12 416.167 2589.26 419.452 2591.41 422.747C2592.73 422.249 2594.15 422.003 2595.61 422.003C2597.29 422.003 2599.01 422.328 2600.68 422.967C2598.54 418.409 2598.71 413.658 2601.54 410.821C2602.44 409.921 2603.53 409.293 2604.75 408.921C2604.9 408.091 2605.28 407.304 2605.91 406.673C2606.73 405.853 2607.81 405.445 2608.91 405.445C2610.06 405.445 2611.22 405.893 2612.11 406.783C2612.96 407.633 2613.4 408.733 2613.44 409.828C2614.81 407.003 2616.43 403.192 2616.31 401.957C2616.05 399.162 2612.81 394.216 2612.78 394.166C2612.57 393.847 2612.66 393.416 2612.98 393.203C2613.09 393.127 2613.23 393.09 2613.36 393.09C2613.58 393.09 2613.8 393.2 2613.94 393.404C2614.08 393.617 2617.4 398.688 2617.7 401.828C2617.86 403.624 2615.8 408.15 2614.68 410.462C2616.25 411.326 2617.79 412.466 2619.2 413.871C2620.6 415.275 2621.74 416.814 2622.61 418.393C2624.83 417.312 2629.1 415.363 2631.02 415.363C2631.1 415.363 2631.17 415.365 2631.24 415.372C2634.38 415.668 2639.45 418.989 2639.66 419.13C2639.98 419.34 2640.07 419.771 2639.86 420.092C2639.73 420.294 2639.51 420.404 2639.28 420.404C2639.15 420.404 2639.02 420.367 2638.9 420.289C2638.85 420.257 2633.91 417.017 2631.11 416.756C2631.07 416.751 2631.02 416.75 2630.98 416.75C2629.62 416.75 2625.97 418.303 2623.24 419.628C2624.34 419.665 2625.43 420.109 2626.28 420.962C2628.03 422.701 2628.07 425.474 2626.39 427.153C2625.76 427.784 2624.98 428.172 2624.15 428.317C2623.77 429.534 2623.14 430.626 2622.25 431.524C2620.68 433.09 2618.54 433.84 2616.16 433.84C2614.23 433.84 2612.14 433.343 2610.1 432.384C2611.3 435.51 2611.39 438.819 2610.32 441.655C2613.61 443.803 2616.9 445.946 2617.43 446.292C2618.3 446.119 2623.49 445.489 2626.45 445.489C2627.64 445.489 2628.47 445.589 2628.52 445.86C2628.71 446.812 2616.68 448.097 2616.68 448.097L2609.49 445.301C2611.02 447.959 2611.85 450.083 2612.4 450.713C2613.23 450.991 2624.88 454.275 2624.57 455.194C2624.54 455.301 2624.33 455.346 2624 455.346C2621.43 455.346 2611.2 452.584 2611.2 452.584L2608.95 450.006C2609.81 452.604 2610.63 455.07 2610.78 455.503C2611.57 456.086 2618.73 462.361 2618.16 463.14C2618.13 463.18 2618.08 463.198 2618.01 463.198C2616.75 463.198 2609.23 456.641 2609.23 456.641L2604.86 447.528C2604.41 447.737 2603.95 447.908 2603.47 448.053C2605.21 456.967 2607.57 470.046 2609.43 484.31C2612.47 507.646 2611.78 532.102 2609.91 536.726C2609.76 537.098 2609.53 537.271 2609.23 537.271Z" fill="white"/>
<path d="M2810.83 569.032C2750.63 569.032 2701.83 520.23 2701.83 460.031C2701.83 399.832 2750.63 351.03 2810.83 351.03C2871.03 351.03 2919.83 399.832 2919.83 460.031C2919.83 520.23 2871.03 569.032 2810.83 569.032ZM2810.83 367.805C2759.89 367.805 2718.6 409.097 2718.6 460.03C2718.6 510.964 2759.89 552.256 2810.83 552.256C2861.76 552.256 2903.05 510.964 2903.05 460.03C2903.05 409.097 2861.76 367.805 2810.83 367.805Z" fill="white"/>
<path d="M1152.46 129.801V104.642H1165.21C1166.24 104.642 1167.35 104.937 1168.55 105.528C1169.76 106.097 1170.78 106.983 1171.62 108.187C1172.49 109.369 1172.92 110.869 1172.92 112.687C1172.92 114.528 1172.47 116.097 1171.59 117.392C1170.7 118.665 1169.62 119.631 1168.35 120.29C1167.1 120.949 1165.92 121.278 1164.8 121.278H1155.6V117.187H1163.1C1163.85 117.187 1164.66 116.812 1165.52 116.062C1166.41 115.312 1166.85 114.187 1166.85 112.687C1166.85 111.142 1166.41 110.097 1165.52 109.551C1164.66 109.006 1163.9 108.733 1163.24 108.733H1157.99V129.801H1152.46ZM1167.67 117.937L1173.94 129.801H1167.87L1161.74 117.937H1167.67ZM1162.01 144.801C1158.24 144.801 1154.7 144.097 1151.41 142.687C1148.11 141.278 1145.21 139.324 1142.71 136.824C1140.21 134.324 1138.26 131.426 1136.85 128.131C1135.44 124.835 1134.74 121.301 1134.74 117.528C1134.74 113.756 1135.44 110.222 1136.85 106.926C1138.26 103.631 1140.21 100.733 1142.71 98.2329C1145.21 95.7329 1148.11 93.7783 1151.41 92.3692C1154.7 90.9601 1158.24 90.2556 1162.01 90.2556C1165.78 90.2556 1169.32 90.9601 1172.61 92.3692C1175.91 93.7783 1178.8 95.7329 1181.3 98.2329C1183.8 100.733 1185.76 103.631 1187.17 106.926C1188.58 110.222 1189.28 113.756 1189.28 117.528C1189.28 121.301 1188.58 124.835 1187.17 128.131C1185.76 131.426 1183.8 134.324 1181.3 136.824C1178.8 139.324 1175.91 141.278 1172.61 142.687C1169.32 144.097 1165.78 144.801 1162.01 144.801ZM1162.01 138.256C1165.83 138.256 1169.3 137.324 1172.44 135.46C1175.58 133.597 1178.08 131.097 1179.94 127.96C1181.8 124.824 1182.74 121.347 1182.74 117.528C1182.74 113.71 1181.8 110.233 1179.94 107.096C1178.08 103.96 1175.58 101.46 1172.44 99.5965C1169.3 97.7329 1165.83 96.801 1162.01 96.801C1158.19 96.801 1154.71 97.7329 1151.58 99.5965C1148.44 101.46 1145.94 103.96 1144.08 107.096C1142.21 110.233 1141.28 113.71 1141.28 117.528C1141.28 121.347 1142.21 124.824 1144.08 127.96C1145.94 131.097 1148.44 133.597 1151.58 135.46C1154.71 137.324 1158.19 138.256 1162.01 138.256Z" fill="white"/>
<path d="M2699.33 563.21L2691.92 546.483H2694.92L2700.1 558.756L2705.28 546.483H2708.28L2700.87 563.21H2699.33ZM2691.37 563.21V546.483H2694.28V563.21H2691.37ZM2705.92 563.21V546.483H2708.83V563.21H2705.92ZM2680.46 563.21V547.937H2683.37V563.21H2680.46ZM2675.37 549.028V546.483H2688.46V549.028H2675.37Z" fill="white"/>
<path d="M660.165 2.01118V99.76C660.165 104.044 660.418 108.076 661.175 112.355C662.182 119.666 666.712 124.197 673.77 125.96C683.345 128.235 692.919 128.235 702.492 125.96C711.062 123.692 715.086 118.403 715.592 108.829C715.845 106.313 715.845 103.792 715.845 101.276V5.03727V2.26406H731.966C731.966 3.02149 732.219 3.77406 732.219 4.27982V106.818C732.219 112.355 731.461 117.649 729.698 122.686C727.182 129.493 722.145 134.023 715.339 136.792C707.787 139.819 699.972 140.577 691.907 140.829C684.608 141.082 677.043 140.577 669.997 138.303C662.939 136.039 656.892 132.007 652.607 125.707C652.354 125.455 652.354 125.201 652.102 124.949C643.544 137.044 631.196 140.577 617.345 140.829C608.523 141.082 599.7 140.577 590.886 137.803C579.547 134.276 573.5 126.212 571.99 114.376C571.49 110.091 571.238 105.807 571.238 101.529V4.78437V2.26406H587.612C587.612 3.27438 587.865 4.02695 587.865 5.03727V103.292C587.865 105.807 588.117 108.576 588.37 111.097C589.627 120.419 593.659 124.702 602.98 126.717C611.543 128.482 620.112 128.482 628.429 126.717C638.249 124.702 642.786 119.16 643.291 108.328C643.544 105.554 643.544 102.787 643.544 100.013V4.78437C643.544 2.26406 643.544 2.26406 646.06 2.26406H657.649C658.408 2.01118 659.159 2.01118 660.165 2.01118Z" fill="white"/>
<path d="M891.44 92.959H907.562C907.562 93.7116 907.562 94.4702 907.814 95.2277C908.067 100.518 907.814 105.553 908.32 110.843C909.071 118.402 913.609 123.438 920.662 125.2C925.957 126.471 931.499 127.222 936.783 127.728C946.11 128.482 955.43 128.234 964.752 126.218C966.016 125.965 967.273 125.453 968.783 124.947C975.583 122.686 979.615 118.155 980.121 111.096C980.625 106.059 980.625 101.276 980.373 96.2331C979.868 88.9275 975.583 83.8844 968.025 81.876C961.725 80.3647 955.179 79.3532 948.625 78.349C937.546 76.5861 926.21 74.8232 915.125 72.8014C910.083 71.7959 905.298 69.7802 901.015 66.5061C895.219 61.9749 891.946 55.9275 891.44 48.8687C890.934 41.816 891.187 34.7645 891.693 27.9634C892.444 16.3745 898.752 9.06892 909.577 5.03739C917.389 2.26297 925.705 1.25872 933.76 0.752958C944.094 0.247193 954.679 0.247202 965.005 1.7645C970.546 2.51585 975.836 3.77296 981.126 6.04161C988.936 9.56859 993.726 15.363 995.742 23.679C996.999 29.7275 996.999 35.7687 996.999 42.0689H980.625V35.7687C980.373 33.2472 980.373 30.7317 979.868 28.2162C978.862 22.9215 975.583 19.1417 970.546 17.1259C963.748 14.3588 956.689 13.853 949.636 13.6001C940.568 13.3472 931.745 13.3472 922.929 15.6159C921.419 15.8688 920.162 16.3745 918.646 16.873C912.603 19.1417 909.071 23.4261 908.573 29.9743C908.067 35.5219 907.814 41.0646 908.32 46.6001C908.819 52.9003 912.856 56.933 918.646 58.443C924.187 59.953 929.989 60.7117 935.777 61.722C948.372 63.7317 960.719 65.7474 973.315 68.0173C978.358 69.0276 982.889 71.0385 987.173 74.0646C993.221 78.6019 996.495 84.6431 997.252 91.9548C998.005 100.018 998.005 108.075 996.746 116.139C995.236 126.471 989.189 133.018 979.615 136.539C972.31 139.319 964.752 140.323 956.942 140.829C946.363 141.58 935.777 141.335 924.952 140.071C918.899 139.319 912.856 138.055 907.309 135.533C899.252 131.754 894.207 125.453 892.697 116.644C890.934 108.576 891.693 100.77 891.44 92.959Z" fill="white"/>
<path d="M848.865 71.5453V73.814H775.8V35.2652C775.8 32.7498 776.053 30.4823 776.559 28.2125C777.822 22.1652 781.601 18.3865 787.39 16.3708C792.938 14.355 798.727 13.8553 804.529 13.6024C814.096 13.0967 823.67 13.0967 832.99 15.3653C834.508 15.6182 836.018 16.1179 837.275 16.6236C844.082 19.144 847.606 23.9293 848.106 30.9808C848.359 33.7552 848.612 36.5223 848.612 39.298C849.118 49.8765 848.865 60.7139 848.865 71.5453ZM865.491 139.315V136.794V37.7868C865.491 34.7668 865.239 31.4866 864.986 28.4666C863.981 16.8765 858.186 8.81225 847.355 5.03361C844.833 4.02937 842.059 3.27072 839.291 2.76495C827.449 0.249502 815.606 0.249498 803.517 0.755263C795.453 1.00815 787.643 2.01238 780.091 4.28103C770.51 7.30225 763.205 12.8438 761.189 23.1767C760.437 27.2082 759.932 31.2337 759.932 35.2652V137.3V139.315H776.306V88.6769H849.369V139.315H865.491Z" fill="white"/>
<path d="M528.407 103.544C528.407 106.058 528.155 108.574 527.902 111.101C526.897 117.395 523.624 121.926 517.575 124.201C512.034 126.469 506.238 126.968 500.444 127.474C490.87 127.981 481.297 127.981 471.722 126.217H471.223C459.633 123.695 454.591 117.901 454.591 105.805C454.338 83.1318 454.591 60.4575 454.591 37.7831C454.591 35.0148 454.844 32.4933 455.349 29.7249C456.354 23.4248 459.879 19.1464 465.928 16.8717C471.722 14.6103 477.77 13.8517 483.818 13.5988C493.391 13.0991 502.965 13.0991 512.287 15.1088C513.291 15.3617 514.297 15.6146 515.307 15.8674C523.877 18.389 527.902 23.6789 528.407 32.4933C528.66 36.526 528.66 40.3047 528.66 44.3362V70.5363C528.407 81.6218 528.407 92.4532 528.407 103.544ZM544.781 70.5363H544.528C544.528 57.1846 544.781 43.8304 544.528 30.4775C544.281 19.3932 539.492 10.8305 528.66 6.29317C525.887 5.03605 522.865 4.02453 519.838 3.27317C507.497 0.498762 494.902 0.251958 482.301 0.750429C473.485 1.25619 464.922 2.00876 456.606 5.03606C447.791 8.30894 441.491 14.1046 439.474 23.4248C438.722 27.4575 438.217 31.489 438.217 35.7674V102.532C438.217 105.805 438.217 109.079 438.722 112.612C439.727 124.201 445.269 132.511 456.354 136.289C460.891 137.808 465.675 139.065 470.465 139.816C482.56 141.579 494.649 141.579 506.738 140.575C513.797 140.069 520.85 138.812 527.397 136.289C536.724 132.763 542.771 126.217 544.281 116.138C544.781 112.359 545.287 108.574 545.287 104.548C545.034 92.9577 544.781 81.6218 544.781 70.5363Z" fill="white"/>
<path d="M1112.64 68.017C1110.87 78.6016 1104.82 84.3912 1094.25 86.154C1091.47 86.6586 1088.7 86.6586 1086.19 86.9115H1043.11H1040.59V15.1111H1042.6H1084.42C1088.7 15.1111 1092.98 15.6156 1097.27 16.3743C1106.59 18.6381 1112.39 24.9382 1113.14 34.5113C1113.64 42.3215 1113.64 50.1329 1113.64 57.6914C1113.39 61.2111 1113.39 64.7429 1112.64 68.017ZM1129.26 31.4913C1128.51 18.384 1121.2 9.32152 1108.35 5.03711C1101.3 2.76846 1094 2.01103 1086.43 2.01103H1025.97H1023.95V139.313H1040.33V100.013H1042.85H1084.17C1090.72 100.013 1097.52 99.507 1104.07 97.9958C1119.19 94.47 1128.25 84.644 1129.26 69.527C1130.02 56.6799 1130.02 44.0856 1129.26 31.4913Z" fill="white"/>
</svg>
