<svg width="250" height="250" viewBox="0 0 250 250" fill="none" xmlns="http://www.w3.org/2000/svg">
<path d="M218.75 156.25V135.417H186.771C186.25 131.354 185.521 127.396 184.479 123.542L211.354 108.021L200.938 90L176.25 104.167C173.333 99.1667 169.792 94.6875 165.938 90.7292C166.979 84.8958 168.021 73.125 159.896 60.625L177.083 43.4375L162.396 28.75L144.479 46.6667C126.979 37.3958 112.188 43.2292 105.625 46.6667L87.6042 28.75L72.9167 43.4375L90.1042 60.625C81.9792 73.125 83.0208 85 84.0625 90.7292C80.2083 94.7917 76.6667 99.2708 73.75 104.167L49.0625 89.8958L38.6458 107.917L65.5208 123.438C64.4792 127.292 63.75 131.25 63.2292 135.312H31.25V156.146H63.2292C63.75 160.208 64.4792 164.167 65.5208 168.021L38.6458 183.542L49.0625 201.563L73.75 187.5C85 206.354 103.75 218.75 125 218.75C146.25 218.75 165 206.354 176.25 187.5L200.938 201.771L211.354 183.75L184.479 168.229C185.521 164.375 186.25 160.417 186.771 156.354H218.75V156.25ZM125 62.5C134.167 62.5 141.875 68.4375 144.583 76.6667C138.438 74.2708 131.875 72.9167 125 72.9167C118.125 72.9167 111.563 74.2708 105.417 76.6667C108.125 68.4375 115.833 62.5 125 62.5ZM125 197.917C101.979 197.917 83.3333 174.583 83.3333 145.833C83.3333 117.083 101.979 93.75 125 93.75C148.021 93.75 166.667 117.083 166.667 145.833C166.667 174.583 148.021 197.917 125 197.917Z" fill="#737373" fill-opacity="0.5"/>
<path d="M135.417 114.583H114.583V177.083H135.417V114.583Z" fill="#737373" fill-opacity="0.5"/>
</svg>
