<svg width="53" height="37" viewBox="0 0 53 37" fill="none" xmlns="http://www.w3.org/2000/svg">
<path d="M40.3207 14.5487C44.28 14.5487 47.4896 11.3127 47.4896 7.32075C47.4896 3.32885 44.28 0.0927734 40.3207 0.0927734C36.3615 0.0927734 33.1519 3.32885 33.1519 7.32075C33.1519 11.3127 36.3615 14.5487 40.3207 14.5487Z" fill="#DC4654"/>
<path d="M36.3974 36.2653H0.462031C0.417079 36.2658 0.372164 36.2622 0.327881 36.2546L17.3244 7.52684C17.428 7.34786 17.5786 7.19897 17.7605 7.09536C17.9425 6.99175 18.1494 6.93713 18.3601 6.93713C18.5708 6.93713 18.7777 6.99175 18.9596 7.09536C19.1416 7.19897 19.2921 7.34786 19.3958 7.52684L30.802 26.8056L31.3488 27.7279L36.3974 36.2653Z" fill="#EA8C91"/>
<path d="M52.6869 36.2635H28.2527L32.9873 29.0629L33.328 28.5441L39.4978 19.1599C39.6069 19.0163 39.7437 18.8984 39.8992 18.8138C40.0547 18.7292 40.2255 18.6799 40.4004 18.6689C40.5753 18.658 40.7505 18.6858 40.9145 18.7504C41.0785 18.815 41.2277 18.9151 41.3523 19.0441C41.3843 19.0807 41.4139 19.1193 41.4412 19.1599L52.6869 36.2635Z" fill="#EA8C91"/>
</svg>
