<svg width="26" height="26" viewBox="0 0 26 26" fill="none" xmlns="http://www.w3.org/2000/svg">
<circle cx="13" cy="13" r="13" fill="#DC4654"/>
<path d="M19.8923 9.46426C19.9029 9.61706 19.9029 9.76985 19.9029 9.92405C19.9029 14.6227 16.3256 20.0416 9.78453 20.0416V20.0388C7.85227 20.0416 5.96015 19.4881 4.3335 18.4446C4.61446 18.4784 4.89684 18.4953 5.17992 18.496C6.78122 18.4974 8.33675 17.9602 9.59652 16.9709C8.07479 16.942 6.74038 15.9499 6.27421 14.5016C6.80727 14.6044 7.35653 14.5832 7.87973 14.4403C6.22069 14.1051 5.02711 12.6476 5.02711 10.9549C5.02711 10.9394 5.02711 10.9246 5.02711 10.9098C5.52144 11.1851 6.07493 11.3379 6.64109 11.3548C5.07852 10.3106 4.59686 8.23205 5.54046 6.60693C7.34597 8.82844 10.0099 10.1789 12.8695 10.3219C12.5829 9.08685 12.9745 7.79268 13.8983 6.92449C15.3306 5.57821 17.5833 5.64721 18.9297 7.0787C19.7261 6.92168 20.4894 6.62947 21.188 6.21544C20.9225 7.03856 20.3669 7.73775 19.6247 8.18205C20.3296 8.09897 21.0183 7.91026 21.6668 7.62228C21.1894 8.33767 20.588 8.96081 19.8923 9.46426Z" fill="white"/>
</svg>
