<svg width="27" height="27" viewBox="0 0 27 27" fill="none" xmlns="http://www.w3.org/2000/svg">
<path d="M13.8552 0.394531C6.67916 0.394531 0.868164 6.21853 0.868164 13.3945C0.868164 20.5705 6.67916 26.3945 13.8552 26.3945C21.0442 26.3945 26.8682 20.5705 26.8682 13.3945C26.8682 6.21853 21.0442 0.394531 13.8552 0.394531ZM22.8642 8.19453H19.0292C18.6132 6.56953 18.0152 5.00953 17.2352 3.56653C19.6272 4.38553 21.6162 6.04953 22.8642 8.19453ZM13.8682 3.04653C14.9472 4.60653 15.7922 6.33553 16.3512 8.19453H11.3852C11.9442 6.33553 12.7892 4.60653 13.8682 3.04653ZM3.80616 15.9945C3.59816 15.1625 3.46816 14.2915 3.46816 13.3945C3.46816 12.4975 3.59816 11.6265 3.80616 10.7945H8.20016C8.09616 11.6525 8.01816 12.5105 8.01816 13.3945C8.01816 14.2785 8.09616 15.1365 8.20016 15.9945H3.80616ZM4.87216 18.5945H8.70716C9.12316 20.2195 9.72116 21.7795 10.5012 23.2225C8.10916 22.4035 6.12016 20.7525 4.87216 18.5945ZM8.70716 8.19453H4.87216C6.12016 6.03653 8.10916 4.38553 10.5012 3.56653C9.72116 5.00953 9.12316 6.56953 8.70716 8.19453ZM13.8682 23.7425C12.7892 22.1825 11.9442 20.4535 11.3852 18.5945H16.3512C15.7922 20.4535 14.9472 22.1825 13.8682 23.7425ZM16.9102 15.9945H10.8262C10.7092 15.1365 10.6182 14.2785 10.6182 13.3945C10.6182 12.5105 10.7092 11.6395 10.8262 10.7945H16.9102C17.0272 11.6395 17.1182 12.5105 17.1182 13.3945C17.1182 14.2785 17.0272 15.1365 16.9102 15.9945ZM17.2352 23.2225C18.0152 21.7795 18.6132 20.2195 19.0292 18.5945H22.8642C21.6162 20.7395 19.6272 22.4035 17.2352 23.2225ZM19.5362 15.9945C19.6402 15.1365 19.7182 14.2785 19.7182 13.3945C19.7182 12.5105 19.6402 11.6525 19.5362 10.7945H23.9302C24.1382 11.6265 24.2682 12.4975 24.2682 13.3945C24.2682 14.2915 24.1382 15.1625 23.9302 15.9945H19.5362Z" fill="#DC4654"/>
</svg>
